<?xml version="1.0" encoding="utf-8"?>
<svg width="8px" height="5px" viewBox="0 0 8 5" version="1.1" xmlns:xlink="http://www.w3.org/1999/xlink" xmlns="http://www.w3.org/2000/svg">
  <desc>Created with Lunacy</desc>
  <defs>
    <path d="M3.57737 4.82938L0.176305 1.538C-0.0587684 1.3105 -0.0587684 0.942643 0.176305 0.71757L0.741482 0.17062C0.976555 -0.0568732 1.35667 -0.0568732 1.58925 0.17062L4 2.50363L6.41075 0.17062C6.64583 -0.0568732 7.02595 -0.0568732 7.25852 0.17062L7.82369 0.71757C8.05877 0.945063 8.05877 1.31292 7.82369 1.538L4.42263 4.82938C4.19256 5.05687 3.81244 5.05687 3.57737 4.82938L3.57737 4.82938Z" id="path_1" />
    <clipPath id="mask_1">
      <use xlink:href="#path_1" />
    </clipPath>
  </defs>
  <path d="M3.57737 4.82938L0.176305 1.538C-0.0587684 1.3105 -0.0587684 0.942643 0.176305 0.71757L0.741482 0.17062C0.976555 -0.0568732 1.35667 -0.0568732 1.58925 0.17062L4 2.50363L6.41075 0.17062C6.64583 -0.0568732 7.02595 -0.0568732 7.25852 0.17062L7.82369 0.71757C8.05877 0.945063 8.05877 1.31292 7.82369 1.538L4.42263 4.82938C4.19256 5.05687 3.81244 5.05687 3.57737 4.82938L3.57737 4.82938Z" id="angle-down" fill="#2D2E2C" stroke="none" />
</svg>