<?xml version="1.0" encoding="UTF-8"?>
<svg width="1908px" height="985px" viewBox="0 0 1908 985" version="1.1" xmlns="http://www.w3.org/2000/svg" xmlns:xlink="http://www.w3.org/1999/xlink">
    <!-- Generator: Sketch 52.5 (67469) - http://www.bohemiancoding.com/sketch -->
    <title>Illustration 17</title>
    <desc>Created with Sketch.</desc>
    <g id="Page-1" stroke="none" stroke-width="1" fill="none" fill-rule="evenodd">
        <g id="Illustration-17" transform="translate(0.000000, -1.000000)">
            <g id="Background">
                <g id="Background-Object-/-Window-/-1" transform="translate(305.000000, 299.000000) scale(-1, 1) translate(-305.000000, -299.000000) translate(78.000000, 0.000000)">
                    <g id="Group-25">
                        <path d="M261.0464,22.9212 L261.0464,566.5602" id="Stroke-1" stroke="#E9EDF0" stroke-width="22"></path>
                        <path d="M252.979,3.4295 L252.979,568.3175" id="Stroke-3" stroke="#C1DEE2" stroke-width="17"></path>
                        <path d="M436.5132,0.9998 L436.5132,569.6898" id="Stroke-5" stroke="#89C5CC" stroke-width="20"></path>
                        <path d="M91.0386,5.6473 L91.0386,564.6183" id="Stroke-8" stroke="#E9EDF0" stroke-width="22"></path>
                        <path d="M69.963,569.69 L430.326,569.69 L430.326,0.999 L69.963,0.999 L69.963,569.69 Z M91.964,547.69 L408.326,547.69 L408.326,23 L91.964,23 L91.964,547.69 Z" id="Fill-11" fill="#C1DEE2"></path>
                        <polygon id="Fill-12" fill="#C1DEE2" points="0.001 597.721 446.359 597.721 446.359 569.69 0.001 569.69"></polygon>
                        <polygon id="Fill-13" fill="#89C5CC" points="342.563 597.721 453.128 597.721 453.128 569.69 342.563 569.69"></polygon>
                        <path d="M97.3237,199.8001 L430.3257,199.8001" id="Stroke-14" stroke="#C1DEE2" stroke-width="17"></path>
                        <path d="M97.3237,376.4446 L430.3257,376.4446" id="Stroke-16" stroke="#C1DEE2" stroke-width="17"></path>
                    </g>
                </g>
                <g id="Background-Object-/-Window-/-1" transform="translate(1364.000000, 299.000000) scale(-1, 1) translate(-1364.000000, -299.000000) translate(1168.000000, 0.000000)">
                    <g id="Group-25">
                        <path d="M199.0464,22.9212 L199.0464,566.5602" id="Stroke-1" stroke="#E9EDF0" stroke-width="22"></path>
                        <path d="M190.979,3.4295 L190.979,568.3175" id="Stroke-3" stroke="#C1DEE2" stroke-width="17"></path>
                        <path d="M374.5132,0.9998 L374.5132,569.6898" id="Stroke-5" stroke="#89C5CC" stroke-width="20"></path>
                        <path d="M29.0386,5.6473 L29.0386,564.6183" id="Stroke-8" stroke="#E9EDF0" stroke-width="22"></path>
                        <path d="M7.963,569.69 L368.326,569.69 L368.326,0.999 L7.963,0.999 L7.963,569.69 Z M29.964,547.69 L346.326,547.69 L346.326,23 L29.964,23 L29.964,547.69 Z" id="Fill-11" fill="#C1DEE2"></path>
                        <polygon id="Fill-12" fill="#C1DEE2" points="0.001 597.721 384.359 597.721 384.359 569.69 0.001 569.69"></polygon>
                        <polygon id="Fill-13" fill="#89C5CC" points="280.563 597.721 391.128 597.721 391.128 569.69 280.563 569.69"></polygon>
                        <path d="M35.3237,199.8001 L368.3257,199.8001" id="Stroke-14" stroke="#C1DEE2" stroke-width="17"></path>
                        <path d="M35.3237,376.4446 L368.3257,376.4446" id="Stroke-16" stroke="#C1DEE2" stroke-width="17"></path>
                    </g>
                </g>
                <g id="Group-42" transform="translate(711.400000, 351.400000)">
                    <polygon id="Fill-1" fill="#DCEEFF" points="212.13568 164.7152 333.93888 164.7152 350.38688 0.4 228.58448 0.4"></polygon>
                    <polygon id="Stroke-2" stroke="#C1DEE2" stroke-width="4" points="212.13568 164.7152 333.93888 164.7152 350.38688 0.4 228.58448 0.4"></polygon>
                    <polygon id="Fill-4" fill="#FFFFFF" points="205.56144 164.7152 329.63024 164.7152 346.07824 0.4 222.00944 0.4"></polygon>
                    <polygon id="Stroke-5" stroke="#C1DEE2" stroke-width="4" points="205.56144 164.7152 329.63024 164.7152 346.07824 0.4 222.00944 0.4"></polygon>
                    <polygon id="Fill-7" fill="#C1DEE2" points="229.32392 143.01904 310.21112 143.01904 322.31592 22.09664 241.42872 22.09664"></polygon>
                    <path d="M267.574002,60.7341638 C271.360268,60.7341638 274.980858,60.742436 278.601448,60.7322401 C283.529235,60.7180043 288.457217,60.7035761 293.384807,60.6535584 C294.224154,60.6450939 294.870996,60.8061124 295.428145,61.4867377 C295.952982,62.127926 296.629982,62.6492642 297.283482,63.264097 C291.800701,68.6277246 286.404087,73.9068992 281.032148,79.1622193 C282.502866,79.0904631 283.937746,78.7778526 285.283521,78.996199 C291.962069,80.0792744 296.568294,84.8852047 297.686314,91.6314366 C298.348431,95.6261186 297.988291,99.4780577 296.358164,103.208223 C294.899979,106.544595 292.514518,108.953716 289.081537,110.349595 C284.314923,112.287972 279.468212,112.53633 274.54963,111.002325 C270.253607,109.662429 267.374446,104.853035 267.544039,101.378153 C267.660365,98.9975031 269.293038,97.2772794 271.730591,97.1493495 C274.353013,97.0119933 276.20365,98.4886693 276.482518,100.941267 C276.741803,103.223036 276.026028,104.577938 273.800955,105.777786 C274.277029,106.173502 274.66439,106.589803 275.13498,106.871634 C278.888738,109.119544 284.682309,108.427376 287.734,105.348788 C289.117767,103.952909 289.861938,102.191902 290.257524,100.32201 C291.051829,96.5664511 291.109209,92.7931936 289.953981,89.0984255 C288.776427,85.3317088 286.202965,83.038013 282.163876,82.4347227 C280.392552,82.1702061 278.811383,82.7015479 277.27369,83.4637405 C275.974131,84.1080068 274.677706,84.7591986 273.319789,85.4377078 C273.132767,84.49776 273.223047,83.8032836 273.772755,83.0905316 C278.224271,77.3196446 282.637991,71.5206707 287.061503,65.7288148 C287.329993,65.377152 287.583207,65.0145237 287.923567,64.5474355 L267.626094,64.5474355 C267.607098,64.9033305 267.576352,65.2144021 267.576156,65.5250889 C267.57361,71.7769152 267.560098,78.0287415 267.590648,84.2803754 C267.595152,85.1983924 267.691111,86.1512294 267.955488,87.0263465 C268.833806,89.9341056 271.332264,91.031032 274.198499,89.8509993 C275.884831,89.1569077 277.059838,87.8658742 278.178054,86.5205907 C278.585194,86.0309945 278.840563,85.3563329 279.705956,85.7085728 C280.467361,86.0184901 281.05271,86.8551321 280.698837,87.659455 C280.127392,88.9581836 279.483879,90.306545 278.545048,91.3515299 C276.830124,93.2602819 274.540818,94.2002297 271.907038,94.0765321 C270.380899,94.0047759 268.833806,93.9293647 267.343309,93.6292585 C262.995584,92.7533719 260.54021,89.886204 260.482243,85.4984985 C260.395293,78.9271361 260.440335,72.3542347 260.429564,65.7821029 C260.428976,65.4013913 260.429564,65.0206797 260.429564,64.4981873 L250,64.4981873 L250,60.7957241 L260.429368,60.7957241 C260.429368,59.617038 260.429564,58.5683979 260.429564,57.5199502 C260.429564,56.8145084 260.346726,56.0979089 260.444839,55.4059334 C260.746424,53.2801816 260.189275,51.5713081 258.399346,50.1946674 C257.958914,49.8560861 258.010615,48.9001711 257.784621,48.0302481 C259.800739,48.0302481 261.552088,48.0966177 263.295407,48.0079325 C264.561478,47.943679 265.647968,48.273411 266.729171,48.8645816 C267.341154,49.1993154 267.603964,49.5552105 267.593585,50.2737338 C267.548347,53.3829103 267.574002,56.4928562 267.574002,59.6024175 L267.574002,60.7341638 Z" id="Combined-Shape" fill="#FFFFFF"></path>
                    <path d="M133.94576,133.01832 L128.46656,133.01832 C102.91616,133.01832 82.20256,112.30472 82.20256,86.75352 L180.20976,86.75352 C180.20976,112.30472 159.49616,133.01832 133.94576,133.01832" id="Fill-8" fill="#E9EDF0"></path>
                    <path d="M83.73488,133.01832 C83.73488,138.54152 88.21248,143.01912 93.73488,143.01912 L183.71008,143.01912 L183.71008,123.01832 L93.73488,123.01832 C88.21248,123.01832 83.73488,127.49592 83.73488,133.01832" id="Fill-10" fill="#C1DEE2"></path>
                    <path d="M144.25048,133.01832 C144.25048,136.21592 146.84248,138.80792 150.04008,138.80792 L183.46888,138.80792 C183.60168,138.80792 183.70968,138.70072 183.70968,138.56712 L183.70968,127.46952 C183.70968,127.33672 183.60168,127.22952 183.46888,127.22952 L150.04008,127.22952 C146.84248,127.22952 144.25048,129.82072 144.25048,133.01832" id="Fill-12" fill="#E9EDF0"></path>
                    <path d="M71.17704,143.01904 L71.17704,163.01984 L169.38424,163.01984 C174.90664,163.01984 179.38424,158.54224 179.38424,153.01904 C179.38424,147.49664 174.90664,143.01904 169.38424,143.01904 L71.17704,143.01904 Z" id="Fill-14" fill="#C1DEE2"></path>
                    <path d="M71.17704,147.28552 L71.17704,158.75352 L111.55624,158.75352 C114.72264,158.75352 117.28984,156.18632 117.28984,153.01912 C117.28984,149.85272 114.72264,147.28552 111.55624,147.28552 L71.17704,147.28552 Z" id="Fill-16" fill="#E9EDF0"></path>
                    <polygon id="Fill-18" fill="#E9EDF0" points="71.1768 522.964 339.9456 522.964 339.9456 246.3472 71.1768 246.3472"></polygon>
                    <polygon id="Fill-20" fill="#C1DEE2" points="322.6408 522.964 360.968 522.964 360.968 254.2248 322.6408 254.2248"></polygon>
                    <polygon id="Fill-21" fill="#C1DEE2" points="37.9808 258.4944 360.9688 258.4944 360.9688 186.864 37.9808 186.864"></polygon>
                    <polygon id="Fill-22" fill="#C1DEE2" points="0 186.8648 403.0544 186.8648 403.0544 162.316 0 162.316"></polygon>
                    <polygon id="Fill-23" fill="#89C5CC" points="360.9688 522.964 379.6688 522.964 379.6688 186.8648 360.9688 186.8648"></polygon>
                    <polygon id="Fill-24" fill="#89C5CC" points="76.3072 522.964 88.4816 522.964 88.4816 258.7632 76.3072 258.7632"></polygon>
                    <polygon id="Fill-25" fill="#89C5CC" points="375.8768 186.8648 414.6048 186.8648 414.6048 162.316 375.8768 162.316"></polygon>
                    <polygon id="Fill-26" fill="#C1DEE2" points="37.98 522.964 76.3072 522.964 76.3072 246.0192 37.98 246.0192"></polygon>
                    <polygon id="Fill-27" fill="#C1DEE2" points="27.2584 522.964 76.308 522.964 76.308 455.2376 27.2584 455.2376"></polygon>
                    <polygon id="Fill-28" fill="#C1DEE2" points="322.6408 522.964 372.0936 522.964 372.0936 455.2376 322.6408 455.2376"></polygon>
                    <path d="M156.54968,512.52144 C156.54968,512.52144 112.42808,486.65264 165.59688,411.39504 C165.59688,411.39504 192.96648,443.35504 203.50408,405.48704 C203.50408,405.48704 233.33368,452.77744 213.96728,481.33744" id="Fill-29" fill-opacity="0.471467391" fill="#89C5CC"></path>
                    <path d="M254.36376,515.1472 C254.36376,515.1472 294.08856,483.2712 261.92456,419.1072 C261.92456,419.1072 215.81256,468.3384 204.16056,377.0976 C204.16056,377.0976 170.48776,445.9848 191.64296,479.0464" id="Fill-30" fill-opacity="0.471467391" fill="#89C5CC"></path>
                    <polygon id="Fill-31" fill="#89C5CC" points="146.1096 522.964 266.2936 522.964 266.2936 498.0488 146.1096 498.0488"></polygon>
                    <polygon id="Fill-32" fill="#89C5CC" points="260.41144 483.94176 252.16744 460.54896 153.80584 498.02976 162.05064 521.42416"></polygon>
                    <polygon id="Fill-33" fill="#89C5CC" points="254.4216 522.4964 263.0512 496.4164 166.8536 462.0004 158.2248 488.0796"></polygon>
                    <polygon id="Fill-34" fill="#89C5CC" points="369.2176 522.964 390.7016 522.964 390.7016 455.2376 369.2176 455.2376"></polygon>
                    <polygon id="Stroke-35" stroke="#C1DEE2" stroke-width="4" points="116.0264 517.4448 146.3872 517.4448 146.3872 313.336 116.0264 313.336"></polygon>
                    <polygon id="Stroke-36" stroke="#C1DEE2" stroke-width="4" points="146.3872 517.4448 176.748 517.4448 176.748 313.336 146.3872 313.336"></polygon>
                    <polygon id="Stroke-37" stroke="#C1DEE2" stroke-width="4" points="176.748 517.4448 207.1088 517.4448 207.1088 313.336 176.748 313.336"></polygon>
                    <polygon id="Stroke-38" stroke="#C1DEE2" stroke-width="4" points="207.1096 517.4448 237.4704 517.4448 237.4704 313.336 207.1096 313.336"></polygon>
                    <polygon id="Stroke-39" stroke="#C1DEE2" stroke-width="4" points="237.4704 517.4448 267.8312 517.4448 267.8312 313.336 237.4704 313.336"></polygon>
                    <polygon id="Stroke-40" stroke="#C1DEE2" stroke-width="4" points="267.8312 517.4448 298.192 517.4448 298.192 313.336 267.8312 313.336"></polygon>
                </g>
                <g id="Group-14" transform="translate(196.000000, 510.000000)">
                    <path d="M259.6459,230.9397 L259.6459,232.5997 C259.6459,246.4497 248.9009,257.6687 235.6579,257.6687 L47.7539,257.6687 C18.7699,257.6687 -3.5351,229.8597 0.4649,198.6997 L21.6789,25.0797 C23.5159,10.6997 34.8359,-0.0003 48.2129,-0.0003 L103.9039,-0.0003 C117.2719,-0.0003 128.5909,10.6997 130.4389,25.0797 L151.6529,198.6997 C151.8149,199.9397 151.9299,201.1797 151.9979,202.4097 L152.1119,202.3897 C152.1119,202.3897 156.0359,230.9397 192.5109,230.9397 L259.6459,230.9397 Z" id="Fill-1" fill="#C1DEE2"></path>
                    <path d="M59.6068,453.2415 C59.6068,462.0965 52.4268,469.2755 43.5718,469.2755 C34.7158,469.2755 27.5378,462.0965 27.5378,453.2415 C27.5378,444.3865 34.7158,437.2065 43.5718,437.2065 C52.4268,437.2065 59.6068,444.3865 59.6068,453.2415" id="Fill-4" fill="#89C5CC"></path>
                    <path d="M205.9232,456.4563 L47.4622,456.4563 C41.3932,456.4563 36.4272,451.4903 36.4272,445.4213 C36.4272,439.3523 41.3932,434.3853 47.4622,434.3853 L205.9232,434.3853 C211.9922,434.3853 216.9582,439.3523 216.9582,445.4213 C216.9582,451.4903 211.9922,456.4563 205.9232,456.4563" id="Fill-6" fill="#C1DEE2"></path>
                    <polygon id="Fill-8" fill="#C1DEE2" points="118.562 451.208 134.824 451.208 134.824 257 118.562 257"></polygon>
                    <polygon id="Fill-10" fill="#89C5CC" points="182.4135 257.0003 126.6925 282.3763 70.9725 257.0003"></polygon>
                    <path d="M127.9252,456.4563 L107.3632,456.4563 C101.2932,456.4563 96.3272,451.4903 96.3272,445.4213 C96.3272,439.3523 101.2932,434.3853 107.3632,434.3853 L127.9252,434.3853 C133.9942,434.3853 138.9602,439.3523 138.9602,445.4213 C138.9602,451.4903 133.9942,456.4563 127.9252,456.4563" id="Fill-11" fill="#89C5CC"></path>
                    <path d="M114.4369,453.2415 C114.4369,462.0965 107.2579,469.2755 98.4029,469.2755 C89.5459,469.2755 82.3679,462.0965 82.3679,453.2415 C82.3679,444.3865 89.5459,437.2065 98.4029,437.2065 C107.2579,437.2065 114.4369,444.3865 114.4369,453.2415" id="Fill-12" fill="#89C5CC"></path>
                    <path d="M226.9096,453.2415 C226.9096,462.0965 219.7306,469.2755 210.8746,469.2755 C202.0186,469.2755 194.8406,462.0965 194.8406,453.2415 C194.8406,444.3865 202.0186,437.2065 210.8746,437.2065 C219.7306,437.2065 226.9096,444.3865 226.9096,453.2415" id="Fill-13" fill="#89C5CC"></path>
                </g>
                <g id="Group-24" transform="translate(0.200000, 719.000000)">
                    <path d="M94.11264,33.20022 C94.11264,51.53622 82.96464,66.40002 69.21264,66.40002 C55.46064,66.40002 44.31264,51.53622 44.31264,33.20022 C44.31264,14.86422 55.46064,0.00042 69.21264,0.00042 C82.96464,0.00042 94.11264,14.86422 94.11264,33.20022" id="Fill-1" fill="#89C5CC"></path>
                    <path d="M69.3987,207.57786 L69.3987,34.88826" id="Stroke-3" stroke="#C1DEE2" stroke-width="5.4"></path>
                    <path d="M42.58266,81.97014 C54.34086,93.72894 56.72406,110.40954 47.90526,119.22894 C39.08646,128.04714 22.40526,125.66454 10.64646,113.90634 C-1.11174,102.14754 -3.49434,85.46634 5.32386,76.64754 C14.14326,67.82874 30.82386,70.21194 42.58266,81.97014" id="Fill-5" fill="#89C5CC"></path>
                    <path d="M126.54048,106.12866 C136.02228,115.61046 133.46028,133.54566 120.81768,146.18826 C108.17568,158.83026 90.24048,161.39226 80.75868,151.91046" id="Fill-8" fill="#89C5CC"></path>
                    <path d="M113.76648,122.8311 L70.13568,166.5867" id="Stroke-10" stroke="#C1DEE2" stroke-width="5.4"></path>
                    <path d="M101.15916,80.98782 L69.27396,112.49802" id="Stroke-12" stroke="#C1DEE2" stroke-width="5.4"></path>
                    <path d="M36.16668,150.1545 L69.47688,183.8397" id="Stroke-14" stroke="#C1DEE2" stroke-width="5.4"></path>
                    <path d="M24.68466,96.23448 L69.21246,141.29268" id="Stroke-16" stroke="#C1DEE2" stroke-width="5.4"></path>
                    <path d="M82.75104,266.88528 L56.04684,266.88528 C35.53584,266.88528 18.75444,250.10388 18.75444,229.59288 L18.75444,194.50128 L120.04344,194.50128 L120.04344,229.59288 C120.04344,250.10388 103.26204,266.88528 82.75104,266.88528" id="Fill-18" fill="#C1DEE2"></path>
                    <path d="M120.04332,214.0056 L18.75432,214.0056" id="Stroke-20" stroke="#E9EDF0" stroke-width="5.4"></path>
                    <path d="M120.04332,233.56914 L18.75432,233.56914" id="Stroke-22" stroke="#E9EDF0" stroke-width="5.4"></path>
                </g>
                <g id="Group-33" transform="translate(1596.200000, 777.600000)">
                    <path d="M90.48402,29.63424 C92.95962,46.39164 84.54402,60.68424 84.54402,60.68424 C84.54402,60.68424 72.11382,47.80824 69.63762,31.05024 C67.16202,14.29284 75.57822,0.00024 75.57822,0.00024 C75.57822,0.00024 88.00842,12.87684 90.48402,29.63424" id="Fill-1" fill="#C1DEE2"></path>
                    <path d="M86.86206,40.58106 C97.93386,55.65606 97.53306,71.04366 97.53306,71.04366 C97.53306,71.04366 79.18086,61.99026 68.10906,46.91526 C57.03726,31.84026 57.43806,16.45206 57.43806,16.45206 C57.43806,16.45206 75.79026,25.50606 86.86206,40.58106" id="Fill-3" fill="#C1DEE2"></path>
                    <path d="M100.76196,31.4568 C97.82136,48.18 85.03536,60.8952 85.03536,60.8952 C85.03536,60.8952 77.01816,46.497 79.95876,29.7744 C82.89936,13.0512 95.68536,0.336 95.68536,0.336 C95.68536,0.336 103.70256,14.7336 100.76196,31.4568" id="Fill-5" fill="#C1DEE2"></path>
                    <path d="M109.98258,43.57134 C100.71678,59.19654 83.48658,69.21294 83.48658,69.21294 C83.48658,69.21294 81.27918,53.89614 90.54498,38.27094 C99.81018,22.64514 117.04038,12.62874 117.04038,12.62874 C117.04038,12.62874 119.24778,27.94614 109.98258,43.57134" id="Fill-7" fill="#C1DEE2"></path>
                    <path d="M174.38094,93.4335 C174.38094,126.5463 135.41754,153.3903 87.35334,153.3903 C39.28914,153.3903 0.32574,126.5463 0.32574,93.4335 C0.32574,60.3201 39.28914,33.4767 87.35334,33.4767 C135.41754,33.4767 174.38094,60.3201 174.38094,93.4335" id="Fill-9" fill="#89C5CC"></path>
                    <path d="M141.25848,200.31288 L42.27108,200.31288 C27.07908,200.31288 14.76348,187.99728 14.76348,172.80528 L14.76348,168.06408 C14.76348,152.87268 27.07908,140.55648 42.27108,140.55648 L141.25848,140.55648 C156.45048,140.55648 168.76608,152.87268 168.76608,168.06408 L168.76608,172.80528 C168.76608,187.99728 156.45048,200.31288 141.25848,200.31288" id="Fill-11" fill="#C1DEE2"></path>
                    <path d="M37.62312,51.12294 L21.58152,38.69034" id="Stroke-13" stroke="#C1DEE2" stroke-width="5.4"></path>
                    <path d="M14.76336,115.45128 L0.32556,125.33928" id="Stroke-15" stroke="#C1DEE2" stroke-width="5.4"></path>
                    <path d="M56.72436,110.0577 L81.63936,114.1005" id="Stroke-17" stroke="#C1DEE2" stroke-width="5.4"></path>
                    <path d="M120.43572,49.10028 L135.47892,30.61548" id="Stroke-19" stroke="#C1DEE2" stroke-width="5.4"></path>
                    <path d="M147.91176,69.21318 L164.35476,58.74258" id="Stroke-21" stroke="#C1DEE2" stroke-width="5.4"></path>
                    <path d="M151.12008,123.31158 L166.76088,133.33758" id="Stroke-23" stroke="#C1DEE2" stroke-width="5.4"></path>
                    <path d="M63.95658,73.35486 L56.51418,56.14806" id="Stroke-25" stroke="#FFFFFF" stroke-width="5.4"></path>
                    <path d="M135.15594,92.1195 L117.27054,100.5873" id="Stroke-27" stroke="#FFFFFF" stroke-width="5.4"></path>
                    <path d="M48.6396,82.27842 L31.6122,71.01342" id="Stroke-29" stroke="#FFFFFF" stroke-width="5.4"></path>
                    <polyline id="Stroke-31" stroke="#E9EDF0" stroke-width="5.4" points="14.76336 164.43126 45.56196 176.43846 76.36176 164.43126 107.16036 176.43846 137.96316 164.43126 168.76596 176.43846"></polyline>
                </g>
                <g id="Group-16" transform="translate(1804.200000, 707.000000)">
                    <path d="M97.82514,33.68928 C97.82514,33.68928 51.82074,135.22788 46.32774,245.62788 C46.32774,245.62788 72.07614,133.75128 97.82514,33.68928" id="Fill-1" fill="#89C5CC"></path>
                    <path d="M15.51318,111.72036 C15.51318,111.72036 48.62538,112.58196 53.66658,222.98196 C53.66658,222.98196 39.53598,139.65876 15.51318,111.72036" id="Fill-3" fill="#89C5CC"></path>
                    <path d="M49.32588,0.59964 C49.32588,0.59964 68.65548,117.40404 49.62948,236.25924 C49.62948,236.25924 50.75988,112.12284 49.32588,0.59964" id="Fill-5" fill="#89C5CC"></path>
                    <path d="M75.40014,267.51528 L27.59394,267.51528 C27.23514,267.51528 26.87754,267.50868 26.52114,267.49548 C4.72254,266.68068 -7.40526,239.10828 4.94034,219.21588 L15.89214,201.57108 L87.10194,201.57108 L98.05314,219.21588 C110.39934,239.10828 98.27154,266.68068 76.47294,267.49548 C76.11654,267.50868 75.75954,267.51528 75.40014,267.51528" id="Fill-8" fill="#C1DEE2"></path>
                    <path d="M-6e-05,242.15358 L102.99414,242.15358" id="Stroke-11" stroke="#E9EDF0" stroke-width="5.4"></path>
                    <path d="M2.39052,225.10014 L100.93512,225.10014" id="Stroke-14" stroke="#E9EDF0" stroke-width="5.4"></path>
                </g>
                <g id="Group-14" transform="translate(840.000000, 4.000000)">
                    <path d="M155.4015,70.763 C155.4015,109.844 123.7195,141.526 84.6375,141.526 C45.5565,141.526 13.8755,109.844 13.8755,70.763 C13.8755,31.681 45.5565,0 84.6375,0 C123.7195,0 155.4015,31.681 155.4015,70.763" id="Fill-1" fill="#E9EDF0"></path>
                    <path d="M141.5265,70.763 C141.5265,109.844 109.8435,141.526 70.7625,141.526 C31.6815,141.526 0.0005,109.844 0.0005,70.763 C0.0005,31.681 31.6815,0 70.7625,0 C109.8435,0 141.5265,31.681 141.5265,70.763" id="Fill-4" fill="#C1DEE2"></path>
                    <path d="M124.3869,70.7577 C124.3869,98.3797 103.5099,121.1177 76.6849,124.0647 C74.7379,124.2797 72.7689,124.3867 70.7689,124.3867 C41.1469,124.3867 17.1389,100.3797 17.1389,70.7577 C17.1389,41.1467 41.1469,17.1387 70.7689,17.1387 C72.7689,17.1387 74.7379,17.2467 76.6849,17.4617 C103.5099,20.4087 124.3869,43.1467 124.3869,70.7577" id="Fill-6" fill="#89C5CC"></path>
                    <path d="M124.3869,70.7577 C124.3869,98.3797 103.5099,121.1177 76.6849,124.0647 C49.8479,121.1177 28.9709,98.3797 28.9709,70.7577 C28.9709,43.1467 49.8479,20.4087 76.6849,17.4617 C103.5099,20.4087 124.3869,43.1467 124.3869,70.7577" id="Fill-8" fill="#C1DEE2"></path>
                    <path d="M73.089,40.9427 L90.464,78.8377" id="Stroke-10" stroke="#E9EDF0" stroke-width="8"></path>
                    <path d="M92.1193,62.951 L54.0593,104.321" id="Stroke-12" stroke="#E9EDF0" stroke-width="8"></path>
                </g>
            </g>
            <g id="Person-/-Girl-/-3" transform="translate(193.000000, 358.000000)">
                <g id="Group-23" transform="translate(5.000000, 0.000000)">
                    <path d="M68.0542189,30.4030598 C30.3474727,35.6633456 46.1450619,79.0921315 56.7431,102.5406 C69.1831,130.0646 58.2861,148.5186 58.2861,148.5186 L0.0001,127.8246 C21.3921,100.6196 -2.2329,85.4686 3.5831,53.0316 C8.8001,23.9346 37.1181,10.8066 55.0101,11.4256 C63.9411,11.7346 71.2501,14.0346 77.0361,16.9836 C77.2561482,17.0957073 77.4660663,17.215563 77.6659912,17.3424954 C88.2361385,6.48800546 102.86723,0.0005 119.777,0.0005 C154.552,0.0005 185.796,27.4375 185.796,63.8685 C185.796,100.2995 157.606,129.8325 122.83,129.8325 C88.055,129.8325 59.864,100.2995 59.864,63.8685 C59.864,51.4173413 62.8003517,40.0167653 68.0542189,30.4030598 Z" id="Hair" fill="#19141E" fill-rule="nonzero"></path>
                    <path d="M128.9816,131.5745 C128.9816,131.5745 116.0506,131.9565 110.5396,128.9465 L128.2946,140.0935 L128.9816,131.5745 Z" id="Fill-5" fill="#CF3E83"></path>
                    <g id="Face-color" transform="translate(79.698900, 47.915501)" fill="#F6B852" fill-rule="nonzero">
                        <path d="M97.4877965,34.9228844 C95.5488103,49.9263489 90.5189042,71.067307 78.1,79.3254989 C71.51,83.7054989 59.51,84.2454989 49.28,83.6554989 L46.94,112.705499 L13.56,98.9654989 C13.56,98.9654989 16.77,66.9054989 18.161,54.6154989 C11.451,48.5354989 0.02,45.7154989 2.27373675e-13,35.3854989 C2.27373675e-13,31.8054989 2.09,25.6154989 9.81,25.5954989 C20.17,25.5854989 18.69,38.0054989 18.69,38.0054989 C19.9738159,38.5038662 21.260847,38.4752009 22.5440671,38.0172559 C32.8021319,37.5910691 61.3351118,33.2953022 80.7346388,0.146320749 C82.9985137,11.3046693 87.7046727,25.2129538 97.4877965,34.9228844 Z" id="Face"></path>
                    </g>
                    <polygon id="Fill-9" fill="#405FD3" points="157.0909 85.8938 164.4909 103.8338 155.9059 103.6618"></polygon>
                    <path d="M149.212,86.6717 C149.028,90.2557 146.92,93.0477 144.504,92.9087 C142.089,92.7697 140.279,89.7517 140.464,86.1677 C140.649,82.5837 142.756,79.7917 145.172,79.9307 C147.588,80.0697 149.397,83.0887 149.212,86.6717" id="Fill-11" fill="#0D0B6D"></path>
                    <path d="M171.8995,86.0994 C171.7145,89.6834 169.6075,92.4754 167.1915,92.3364 C164.7755,92.1974 162.9665,89.1794 163.1505,85.5954 C163.3355,82.0114 165.4425,79.2184 167.8585,79.3574 C170.2745,79.4964 172.0835,82.5154 171.8995,86.0994" id="Fill-13" fill="#0D0B6D"></path>
                    <path d="M153.7999,112.2547 C153.7999,112.2547 148.2059,114.0607 142.5999,107.8277" id="Stroke-15" stroke="#1C295E" stroke-width="3"></path>
                    <path d="M128.9601,131.5745 C128.9601,131.5745 116.0301,131.9565 110.5181,128.9455 L128.2731,140.0925 L128.9601,131.5745 Z" id="Fill-17" fill="#000000" opacity="0.402785528"></path>
                </g>
                <g id="Group-24" transform="translate(0.000000, 126.000000)">
                    <path d="M82.002,168.6909 L75.092,168.5899 C75.092,168.5899 75.102,168.4809 75.111,168.2509 C77.491,168.4199 79.792,168.5599 82.002,168.6909" id="Fill-6" fill="#C83820"></path>
                    <g id="Sweater-color" fill="#CE3D29" fill-rule="nonzero">
                        <path d="M222.8018,243.5708 L199.9908,246.4298 L163.2518,188.9698 L161.9108,169.8708 L105.9418,169.0408 L82.0518,168.6908 L82.0018,168.6908 C79.7918,168.5598 77.4908,168.4208 75.1118,168.2508 C45.0218,166.1508 3.3318,160.2998 0.4718,144.0998 C-4.7182,114.7598 34.5418,57.8208 39.1818,51.2208 C39.4718,50.8108 39.6208,50.5908 39.6208,50.5908 C46.2008,41.1908 52.8218,33.8808 59.0018,29.9908 C71.0218,22.4208 82.2918,20.7598 93.0018,20.7908 L95.8708,0.0008 L139.5618,6.0298 L137.1818,23.3108 C150.0118,24.5408 158.7408,27.0498 166.9108,34.5498 C193.1418,58.6308 195.0718,148.8208 195.0718,148.8208 L222.8018,243.5708 Z" id="Sweater"></path>
                    </g>
                    <path d="M105.9415,169.0405 L105.9415,169.4405 C105.9415,169.4405 95.9215,169.4605 82.0515,168.6905 L105.9415,169.0405 Z" id="Fill-10" fill="#C83820"></path>
                    <path d="M161.1075,169.6391 C164.3155,128.8961 186.5205,120.2811 170.5205,74.5881" id="Stroke-12" stroke="#000000" stroke-width="3" opacity="0.201148624"></path>
                    <path d="M198.8839,220.0434 L115.4459,210.4264 C112.7129,210.1104 110.9139,207.4244 111.6629,204.7784 L144.6309,88.3004 C145.2269,86.1954 147.2609,84.8334 149.4349,85.0834 L232.8729,94.7004 C235.6049,95.0154 237.4049,97.7024 236.6549,100.3484 L203.6879,216.8254 C203.0919,218.9314 201.0569,220.2934 198.8839,220.0434" id="Fill-14" fill="#18181C"></path>
                    <path d="M124.791276,176.515343 C124.949991,176.557865 125.110599,176.601686 125.2731,176.6474 C131.0701,178.2294 136.9951,179.1864 145.2361,178.1004 C150.5371,177.4074 155.0941,176.5014 155.0431,175.6554 C154.8971,173.5184 152.3241,173.0394 152.3241,173.0394 L147.3741,173.2784 L142.6121,172.9964 C142.6121,172.9964 164.4901,168.8584 164.4901,168.2174 C164.4221,165.9604 160.8311,165.0454 160.8311,165.0454 C160.8311,165.0454 168.3541,163.8484 168.2681,162.6514 C168.0631,159.6084 164.7041,159.3774 164.7041,159.3774 C164.7041,159.3774 165.6361,158.5734 165.5421,157.8294 C165.1741,154.8284 159.8221,154.3324 157.2741,153.9654 C157.2741,153.9654 148.6051,153.8464 146.0231,153.2044 C139.232561,151.508875 135.191051,149.994412 132.655753,148.729657 L149.5977,88.8727 C150.1937,86.7677 152.2287,85.4057 154.4017,85.6557 L237.8397,95.2737 C240.5717,95.5877 242.3717,98.2747 241.6217,100.9207 L208.6547,217.3977 C208.0587,219.5037 206.0247,220.8657 203.8507,220.6157 L120.4127,210.9987 C117.6807,210.6827 115.8807,207.9967 116.6297,205.3507 L124.791276,176.515343 Z" id="iPad" fill="#FCBDA4" fill-rule="nonzero"></path>
                    <g id="Skin-color" transform="translate(97.000000, 136.000000)" fill="#F6B852" fill-rule="nonzero">
                        <path d="M125.405423,107.62048 C130.6491,113.792088 137.035137,121.463305 137.9654,123.2904 C139.5794,126.4614 142.5644,142.1584 142.4224,145.2604 C142.2804,148.3604 132.9784,162.2974 132.9784,162.2974 C127.2074,160.8834 130.9764,153.6864 130.9764,153.6864 C130.9764,153.6864 125.8074,158.0574 123.6584,157.9834 C103.4184,157.2934 104.5024,147.0464 104.9814,145.7624 C106.0564,142.8804 111.4594,146.1764 111.4594,146.1764 C111.4594,146.1764 101.072004,125.102638 103.572013,110.356954 L125.405423,107.62048 Z M63.8311,29.0454 C63.8311,29.0454 67.4221,29.9604 67.4901,32.2174 C67.4901,32.8584 45.6121,36.9964 45.6121,36.9964 L50.3741,37.2784 L55.3241,37.0394 C55.3241,37.0394 57.8971,37.5184 58.0431,39.6554 C58.0941,40.5014 53.5371,41.4074 48.2361,42.1004 C39.9951,43.1864 34.0701,42.2294 28.2731,40.6474 C27.7861,40.5104 27.3161,40.3904 26.8631,40.2714 C20.8951,38.7064 18.2361,38.4154 10.5601,34.2344 C7.1561,32.3794 2.1381,28.7034 0.0441,26.8394 L5.5751,6.3724 L13.2011,3.7654 C13.2011,3.7654 16.7401,2.3794 22.7171,1.2764 C26.4701,0.5844 30.1331,0.8584 34.0061,0.4394 L31.8061,8.5024 C31.5581,8.6814 31.2741,9.2874 31.0601,9.5194 C31.2241,9.6554 31.3861,9.8094 31.5741,9.9804 C33.1551,11.4254 36.1471,13.9894 49.0231,17.2044 C51.6051,17.8464 60.2741,17.9654 60.2741,17.9654 C62.8221,18.3324 68.1741,18.8284 68.5421,21.8294 C68.6361,22.5734 67.7041,23.3774 67.7041,23.3774 C67.7041,23.3774 71.0631,23.6084 71.2681,26.6514 C71.3541,27.8484 63.8311,29.0454 63.8311,29.0454 Z" id="Skin"></path>
                    </g>
                    <path d="M212.5919,254.0512 C212.5919,254.0512 215.4319,264.7802 225.1789,268.1232 C228.5879,269.2922 227.7369,283.0922 236.0899,281.4422" id="Stroke-4" stroke="#000000" stroke-width="3" opacity="0.148065476"></path>
                    <path d="M158.0753,96.5068 C157.4183,98.5708 156.0163,99.9678 154.9433,99.6268 C153.8703,99.2858 153.5333,97.3348 154.1903,95.2708 C154.8473,93.2058 156.2493,91.8088 157.3223,92.1498 C158.3953,92.4918 158.7323,94.4418 158.0753,96.5068" id="Fill-20" fill="#020101"></path>
                    <polyline id="Stroke-22" stroke="#000000" stroke-width="3" opacity="0.200497582" points="74.0294 82.667 52.9694 117.539 105.3324 138.258"></polyline>
                </g>
                <g id="Group-15" transform="translate(73.000000, 242.000000)">
                    <g id="Shoes" transform="translate(172.000000, 219.740900)" fill="#0D0B6D" fill-rule="nonzero">
                        <path d="M26.6969,104.7139 L24.1159,127.2419 C24.1159,127.2419 72.1359,139.8309 90.1889,158.5539 L0.6709,158.7089 L4.0219,94.1869 L26.6969,104.7139 Z M129.7336,-1.13686838e-13 L140.0446,20.292 C140.0446,20.292 187.2216,4.248 212.7016,9.932 L138.6716,59.064 L104.9206,3.738 L129.7336,-1.13686838e-13 Z"></path>
                    </g>
                    <g id="Skin-color" transform="translate(174.000000, 222.000000)" fill="#E576C6" fill-rule="nonzero">
                        <path d="M0.9372,97.5974 L24.7222,107.0504 L24.5192,125.7524 L0.2062,124.8594 L0.9372,97.5974 Z M105.1974,5.8708 L130.3454,0.6188 L140.5284,16.3908 L119.6774,29.1008 L105.1974,5.8708 Z" id="Skin"></path>
                    </g>
                    <g id="Pants" transform="translate(-0.000420, 0.000000)" fill="#2F2F3D" fill-rule="nonzero">
                        <path d="M234.667445,201.10015 L222.35702,334.7238 L165.33802,334.7238 L167.86902,140.7098 L59.0340203,141.4598 C27.9862203,141.4595 -2.04377972,114.7955 0.109220281,83.8065 L3.49422028,52.2565 L169.70022,3.1545 C200.46922,-3.8025 211.13722,5.3885 231.08522,40.8985 L319.16122,221.4375 L270.77722,253.7705 L234.667445,201.10015 Z"></path>
                    </g>
                    <g id="Overlay" transform="translate(59.033600, 63.744800)" fill="#18181C" opacity="0.150483631">
                        <path d="M124.552,2.84217094e-14 L4.8316906e-13,77.715 L108.835,76.965 L106.304,270.979 L163.323,270.979 L182.871,58.795 C187.694,20.188 163.532,2.84217094e-14 124.552,2.84217094e-14" id="Fill-13"></path>
                    </g>
                </g>
            </g>
            <g id="Person-/-Robot-/-3" transform="translate(1385.000000, 612.000000) scale(-1, 1) translate(-1385.000000, -612.000000) translate(1218.000000, 245.000000)">
                <g id="Group-13" transform="translate(82.233766, 345.000000)">
                    <g id="Legs-color" fill="#309282" fill-rule="nonzero">
                        <path d="M128.641208,89.5534 L128.641208,100.209 C128.641208,108.606 121.878409,115.413 113.535935,115.413 L64.7796039,115.413 C56.4381234,115.413 49.6753247,108.606 49.6753247,100.209 L49.6753247,88 L44.7077922,88 L44.7077922,141.792329 C50.7677264,138.02902 57.2169998,136 63.9063117,136 C63.9727407,136 64.039146,136.0002 64.1055275,136.0006 L115.901556,136.0006 C115.967937,136.0002 116.034342,136 116.100771,136 C122.872197,136 129.397596,138.079023 135.522134,141.931375 L135.522134,89.5534 L128.641208,89.5534 Z M128.641208,71.5534 L144.463693,71.5534 C149.401979,71.5534 153.405251,75.5828373 153.405251,80.5534 L153.405251,159.713764 C169.517223,182.619333 180.007083,219.97296 180.007083,262.164 C180.007083,331.843 151.396083,388.329 116.100771,388.329 C115.251999,388.329 114.407091,388.296333 113.566353,388.2316 L66.4407315,388.2316 C65.5999928,388.296333 64.7550845,388.329 63.9063117,388.329 C28.6119935,388.329 9.09494702e-13,331.843 9.09494702e-13,262.164 C9.09494702e-13,219.899669 10.5267013,182.489571 26.6862799,159.594525 L26.6862799,262.164 C26.6862799,266.188865 29.3111433,269.596654 32.9318395,270.747688 C35.0480536,300.783833 48.1097988,323.906 63.9056162,323.906 C81.1787201,323.906 95.1802071,296.263 95.1802071,262.164 C95.1802071,228.065 81.1787201,200.423 63.9056162,200.423 C56.6694063,200.423 50.0069798,205.275337 44.7077921,213.421891 L44.7077922,252.796 L64.0444091,252.796 C68.9826955,252.796 72.9859675,256.825437 72.9859675,261.796 C72.9859675,266.766563 68.9826955,270.796 64.0444091,270.796 L35.7662338,270.796 C30.8279474,270.796 26.8246753,266.766563 26.8246753,261.796 L26.8246753,79 C26.8246753,74.0294373 30.8279474,70 35.7662338,70 L49.6753247,70 L49.6753247,15.204 C49.6753247,6.807 56.4381234,0 64.7796039,0 L113.535935,0 C121.878409,0 128.641208,6.807 128.641208,15.204 L128.641208,71.5534 Z" id="Legs"></path>
                    </g>
                    <path d="M33.0898636,270.385903 C33.9348937,270.652373 34.8338997,270.796 35.7662338,270.796 L64.0444091,270.796 C68.9826955,270.796 72.9859675,266.766563 72.9859675,261.796 C72.9859675,256.825437 68.9826955,252.796 64.0444091,252.796 L44.7077922,252.796 L44.7077922,213.236689 C50.0315838,204.946851 56.7529679,200 64.0593117,200 C81.3324156,200 95.3339026,227.642 95.3339026,261.741 C95.3339026,295.84 81.3324156,323.483 64.0593117,323.483 C48.2742281,323.483 35.2195021,300.392247 33.0898642,270.38591 L33.0898636,270.385903 Z" id="Path" fill="#19141E"></path>
                    <polygon id="Fill-10" fill="#19141E" points="49.4120455 58.15 128.377929 58.15 128.377929 30.928 49.4120455 30.928"></polygon>
                    <g id="Overlay" transform="translate(26.824675, 70.000000)" fill="#000000" opacity="0.395763579">
                        <path d="M109.29581,72.0108882 C109.028501,71.8299762 108.75712,71.6483683 108.481669,71.4660645 L108.481669,20 L101.337662,20 L101.337662,2 L117.423228,2 C122.361514,2 126.364786,6.02943725 126.364786,11 C126.507122,45.5416289 126.579044,71.5136232 126.580552,88.915983 C126.088575,88.2650666 125.591765,87.6272843 125.090248,87.0028903 C124.711137,86.4785431 124.340783,85.9619608 124.00021,85.5922852 C123.911822,85.4963439 123.826036,85.4023668 123.742628,85.3102046 C141.713281,107.639196 153.654802,147.148174 153.654802,192.164 C153.654802,261.843 125.043802,318.329 89.7484907,318.329 C88.8997178,318.329 88.0548101,318.296333 87.2140725,318.2316 L40.0884508,318.2316 C74.2079489,315.604571 101.460343,260.16733 101.460343,192.164 C101.460343,122.616146 72.9559516,66.2126726 37.7532468,66 L89.5492749,66.0006 C89.6156564,66.0002001 89.6820617,66 89.7484907,66 C96.5663573,66 103.134811,68.1076384 109.29581,72.0108882 Z M119.751768,80.7401238 C120.230509,81.2435912 120.705623,81.758732 121.177011,82.2853539 C120.756887,81.7941343 120.307687,81.2960876 119.751768,80.7401238 Z M17.8831169,182.796 L37.2197338,182.796 C42.1580201,182.796 46.1612922,186.825437 46.1612922,191.796 C46.1612922,196.766563 42.1580201,200.796 37.2197338,200.796 L8.94155844,200.796 C4.00327207,200.796 -1.20792265e-13,196.766563 -1.20792265e-13,191.796 L-1.20792265e-13,9 C-1.20792265e-13,4.02943725 4.00327207,2.84217094e-13 8.94155844,2.84217094e-13 L37.2197338,2.84217094e-13 C42.1580201,2.84217094e-13 46.1612922,4.02943725 46.1612922,9 C46.1612922,13.9705627 42.1580201,18 37.2197338,18 L17.8831169,18 L17.8831169,182.796 Z" id="Shape"></path>
                    </g>
                </g>
                <g id="Group-24" transform="translate(0.000000, 138.000000)">
                    <polyline id="Stroke-1" stroke="#19141E" stroke-width="15" points="43.0783 388.3777 22.0043 365.5247 52.5573 326.2587 89.2383 358.0817 76.0093 386.0207"></polyline>
                    <polyline id="Stroke-3" stroke="#19141E" stroke-width="15" points="271.9357 386.494 253.0447 361.807 287.0677 325.506 320.6777 360.555 304.9447 387.165"></polyline>
                    <path d="M287.4435,221.7064 L272.2985,110.6684" id="Stroke-5" stroke="#19141E" stroke-width="27" stroke-linecap="round"></path>
                    <path d="M45.5598,218.3235 L61.5258,107.4015" id="Stroke-13" stroke="#19141E" stroke-width="27" stroke-linecap="round"></path>
                    <path d="M224.007,156.4217 L180.89,156.4217 C174.465,156.4217 169.257,151.2137 169.257,144.7887 L169.257,101.6717 C169.257,95.2477 174.465,90.0397 180.89,90.0397 L224.007,90.0397 C230.431,90.0397 235.639,95.2477 235.639,101.6717 L235.639,144.7887 C235.639,151.2137 230.431,156.4217 224.007,156.4217" id="Fill-17" fill="#19141E"></path>
                    <path d="M213.007,156.4217 L180.89,156.4217 C174.465,156.4217 169.257,151.2137 169.257,144.7887 L169.257,101.6717 C169.257,95.2477 174.465,90.0397 180.89,90.0397 L213.007,90.0397 C219.431,90.0397 224.639,95.2477 224.639,101.6717 L224.639,144.7887 C224.639,151.2137 219.431,156.4217 213.007,156.4217" id="Fill-18" fill="#405FD3"></path>
                    <g id="Body-color" transform="translate(-0.000140, 18.460800)">
                        <path d="M63.2864225,124.414983 C62.9836006,124.422447 62.6798586,124.4262 62.3752401,124.4262 C42.3332401,124.4262 26.0862401,108.1782 26.0862401,88.1362 C26.0862401,68.0942 42.3332401,51.8462 62.3752401,51.8462 C66.6561128,51.8462 70.7638923,52.5874802 74.5772167,53.9486787 C92.4590984,21.7727795 126.794705,0 166.21564,0 C203.820064,0 236.7965,19.8110686 255.278377,49.5649887 C258.943845,48.3195218 262.872653,47.644 266.95924,47.644 C287.00124,47.644 303.24924,63.892 303.24924,83.934 C303.24924,102.995881 288.551543,118.624862 269.870921,120.107891 C262.449455,170.699186 218.869255,209.539 166.21564,209.539 C115.068219,209.539 72.4815646,172.886952 63.2864225,124.414983 Z M0.0755400901,224.623 C-1.02545991,209.875 10.0385401,197.028 24.7865401,195.927 L61.8375401,193.163 C76.5855401,192.062 89.4325401,203.126 90.5325401,217.873 L96.8345401,302.329 C97.9345401,317.077 86.8715401,329.924 72.1245401,331.025 L35.0725401,333.79 C20.3245401,334.89 7.47754009,323.826 6.37754009,309.079 L0.0755400901,224.623 Z M241.71514,217.9819 C241.79314,203.1929 253.84614,191.2689 268.63414,191.3479 L305.78814,191.5449 C320.57614,191.6249 332.50114,203.6769 332.42214,218.4649 L331.97114,303.1539 C331.89314,317.9429 319.84014,329.8679 305.05214,329.7889 L267.89814,329.5909 C253.11014,329.5119 241.18514,317.4599 241.26414,302.6709 L241.71514,217.9819 Z" id="Body" fill="#309282" fill-rule="nonzero"></path>
                        <path d="M162.656268,72.2270728 C169.045592,72.2270728 175.155338,72.2411613 181.265084,72.2237964 C189.580724,72.199551 197.896693,72.174978 206.212002,72.0897917 C207.6284,72.0753755 208.719946,72.3496101 209.660135,73.5088001 C210.545797,74.6008239 211.688235,75.4887281 212.791017,76.5358652 C203.538823,85.6707934 194.432036,94.6618877 185.366889,103.612355 C187.848726,103.490145 190.270086,102.95773 192.541082,103.329601 C203.811131,105.174214 211.584137,113.359314 213.470795,124.848991 C214.588117,131.652433 213.980381,138.212767 211.229542,144.565705 C208.768855,150.247964 204.743389,154.350998 198.950235,156.728353 C190.906573,160.029653 182.727749,160.452636 174.427641,157.840036 C167.178101,155.558024 162.319518,147.367026 162.605706,141.448866 C162.802006,137.394323 165.557142,134.464566 169.670513,134.246686 C174.095849,134.012751 177.218799,136.527715 177.689389,140.704796 C178.126933,144.590933 176.919062,146.898501 173.164251,148.941991 C173.967626,149.615946 174.621297,150.324959 175.415419,150.804952 C181.749885,154.633424 191.526536,153.454575 196.676264,148.211354 C199.011372,145.833999 200.267161,142.834783 200.934712,139.650123 C202.275102,133.253937 202.37193,126.827608 200.422482,120.534956 C198.435361,114.119766 194.092643,110.213316 187.276681,109.185837 C184.287571,108.735332 181.619349,109.640274 179.024492,110.938383 C176.831487,112.035649 174.643769,113.14471 172.352284,114.300296 C172.036685,112.699447 172.189032,111.516667 173.116663,110.302762 C180.628597,100.47422 188.076751,90.5978423 195.541427,80.7335877 C195.994503,80.1346619 196.421802,79.5170607 196.99616,78.721551 L162.744173,78.721551 C162.712118,79.3276848 162.660234,79.8574786 162.659903,80.386617 C162.655607,91.0342587 162.632805,101.6819 162.684358,112.329214 C162.691959,113.892712 162.85389,115.515512 163.300025,117.005946 C164.782187,121.958224 168.998335,123.826426 173.835107,121.816683 C176.680792,120.634558 178.663617,118.435767 180.550606,116.144581 C181.237655,115.310738 181.668589,114.161704 183.12894,114.761613 C184.413811,115.289441 185.401589,116.714347 184.804428,118.084209 C183.840114,120.296106 182.754186,122.592534 181.169909,124.372274 C178.275975,127.623118 174.41277,129.223966 169.968267,129.013294 C167.392907,128.891084 164.782187,128.762649 162.266973,128.251531 C154.930189,126.759786 150.786745,121.876641 150.688925,114.40383 C150.542196,103.211979 150.618205,92.0175061 150.600029,80.8243439 C150.599037,80.1759446 150.600029,79.5275452 150.600029,78.6376752 L133.00014,78.6376752 L133.00014,72.3319176 L150.599698,72.3319176 C150.599698,70.3244679 150.600029,68.5385027 150.600029,66.7528652 C150.600029,65.5514097 150.46024,64.330951 150.625805,63.1524303 C151.134731,59.5320093 150.194541,56.6215841 147.174037,54.2769929 C146.430808,53.7003466 146.518052,52.072304 146.136689,50.5907163 C149.538887,50.5907163 152.494288,50.7037521 155.43614,50.5527101 C157.572634,50.4432783 159.406087,51.0048531 161.230617,52.0116906 C162.263338,52.581784 162.70683,53.1879178 162.689315,54.4116529 C162.612976,59.7069691 162.656268,65.0035958 162.656268,70.2995672 L162.656268,72.2270728 Z" id="Combined-Shape" fill="#FFFFFF" transform="translate(173.500140, 105.039200) scale(-1, 1) translate(-173.500140, -105.039200) "></path>
                    </g>
                    <polygon id="Fill-11" fill="#19141E" points="126.21 26.461 206.223 26.461 206.223 -5.68434189e-14 126.21 -5.68434189e-14"></polygon>
                    <g id="Overlay" transform="translate(16.000000, 66.500000)">
                        <path d="M-1.77458048e-12,174.9087 L6.652,259.3887 L-1.77458048e-12,174.9087 Z M16.4882,173.5 L23.1402,257.98 L16.4882,173.5 Z" id="Shape" stroke="#000000" stroke-width="9" opacity="0.401762463" stroke-linecap="round" stroke-linejoin="round"></path>
                        <path d="M9,39.79 C9,59.832 25.247,76.08 45.289,76.08 C65.331,76.08 81.579,59.832 81.579,39.79 C81.579,19.748 65.331,3.5 45.289,3.5 C25.247,3.5 9,19.748 9,39.79" id="Fill-14" fill="#000000" opacity="0.404203869"></path>
                        <path d="M226.45139,170.13439 L226.00039,254.82339 C225.92139,269.61239 237.84639,281.66439 252.63439,281.74339 L289.78839,281.94139 C304.57639,282.02039 316.62939,270.09539 316.70739,255.30639 L317.15839,170.61739 C317.23739,155.82939 305.31239,143.77739 290.52439,143.69739 L253.37039,143.50039 C238.58239,143.42139 226.52939,155.34539 226.45139,170.13439" id="Fill-16" fill="#000000" opacity="0.398763021"></path>
                        <path d="M239,1.9209887 C242.665468,0.675521796 246.594276,-2.84217094e-14 250.680863,-2.84217094e-14 C270.722863,-2.84217094e-14 286.970863,16.248 286.970863,36.29 C286.970863,55.3518808 272.273166,70.9808615 253.592544,72.4638908 C254.326941,67.4575846 254.707263,62.3362048 254.707263,57.126 C254.707263,36.8671246 248.957206,17.9510652 239,1.9209887 Z" id="Path" fill="#000000" opacity="0.397856213"></path>
                    </g>
                </g>
                <g id="Group-15" transform="translate(73.000000, 0.000000)">
                    <path d="M72.728,12.4228 C72.728,12.4228 90.19,23.9718 92.111,43.9528" id="Stroke-1" stroke="#19141E" stroke-width="5" stroke-linecap="round"></path>
                    <g id="Face-color" transform="translate(0.000400, 0.000000)" fill="#309282" fill-rule="nonzero">
                        <path d="M73.7526,96.4496 L20.875,96.4496 C9.394,96.4496 -3.41060513e-13,87.0556 -3.41060513e-13,75.5746 L-3.41060513e-13,61.5016 C-3.41060513e-13,50.0206 9.394,40.6266 20.875,40.6266 L154.211,40.6266 C165.692,40.6266 175.086,50.0206 175.086,61.5016 L175.086,75.5746 C175.086,87.0556 165.692,96.4496 154.211,96.4496 L104.1116,96.4496 L104.1116,138.326 L73.7526,138.326 L73.7526,96.4496 Z M81.6138,10.538 C81.6138,16.358 76.8958,21.077 71.0758,21.077 C65.2558,21.077 60.5368,16.358 60.5368,10.538 C60.5368,4.718 65.2558,0 71.0758,0 C76.8958,0 81.6138,4.718 81.6138,10.538 Z" id="Face"></path>
                    </g>
                    <g id="Overlay" transform="translate(73.753000, 96.326000)" fill="#000000" opacity="0.399042039">
                        <polygon id="Fill-5" points="1.93622895e-13 42 30.359 42 30.359 0 1.93622895e-13 0"></polygon>
                    </g>
                    <polygon id="Fill-7" fill="#000000" opacity="0.400367374" points="73.7534 124.7416 104.1124 114.7416 104.1124 96.1576 73.7534 96.1576"></polygon>
                    <path d="M20.8749,96.4496 C9.3939,96.4496 -9.99999993e-05,87.0556 -9.99999993e-05,75.5746 L-9.99999993e-05,61.5016 C-9.99999993e-05,50.0206 9.3939,40.6266 20.8749,40.6266 C32.3559,40.6266 41.7499,50.0206 41.7499,61.5016 L41.7499,75.5746 C41.7499,87.0556 32.3559,96.4496 20.8749,96.4496" id="Fill-9" fill="#19141E"></path>
                    <path d="M53.6152,68.5385 C53.6152,77.3775 60.7812,84.5435 69.6202,84.5435 C78.4602,84.5435 85.6262,77.3775 85.6262,68.5385 C85.6262,59.6985 78.4602,52.5325 69.6202,52.5325 C60.7812,52.5325 53.6152,59.6985 53.6152,68.5385" id="Fill-10" fill="#FFFFFF"></path>
                    <path d="M64.3408,66.2895 C64.3408,70.3505 67.6328,73.6425 71.6938,73.6425 C75.7548,73.6425 79.0468,70.3505 79.0468,66.2895 C79.0468,62.2285 75.7548,58.9365 71.6938,58.9365 C67.6328,58.9365 64.3408,62.2285 64.3408,66.2895" id="Fill-11" fill="#19141E"></path>
                    <path d="M131.665,68.5385 C131.665,77.3775 138.831,84.5435 147.671,84.5435 C156.511,84.5435 163.677,77.3775 163.677,68.5385 C163.677,59.6985 156.511,52.5325 147.671,52.5325 C138.831,52.5325 131.665,59.6985 131.665,68.5385" id="Fill-12" fill="#FFFFFF"></path>
                    <path d="M142.3906,66.2895 C142.3906,70.3505 145.6826,73.6425 149.7436,73.6425 C153.8046,73.6425 157.0966,70.3505 157.0966,66.2895 C157.0966,62.2285 153.8046,58.9365 149.7436,58.9365 C145.6826,58.9365 142.3906,62.2285 142.3906,66.2895" id="Fill-13" fill="#19141E"></path>
                    <polyline id="Fill-14" fill="#19141E" points="104.9877 57.5678 119.3037 68.4308 104.9877 79.5088"></polyline>
                </g>
            </g>
        </g>
    </g>
</svg>