<?xml version="1.0" encoding="UTF-8"?>
<svg width="65px" height="87px" viewBox="0 0 65 87" version="1.1" xmlns="http://www.w3.org/2000/svg" xmlns:xlink="http://www.w3.org/1999/xlink">
    <!-- Generator: Sketch 63 (92445) - https://sketch.com -->
    <title>Combined Shape</title>
    <desc>Created with Sketch.</desc>
    <g id="Page-1" stroke="none" stroke-width="1" fill="none" fill-rule="evenodd">
        <g id="Proposal_exploration_1_0_0" transform="translate(-1358.000000, -1081.000000)" fill="#1815B5" fill-rule="nonzero">
            <g id="Voters" transform="translate(30.000000, 1057.000000)">
                <g id="3" transform="translate(1260.000000, 0.000000)">
                    <g id="noun_Security_3125974" transform="translate(68.000000, 24.000000)">
                        <g id="Group" transform="translate(0.000000, 0.637820)">
                            <path d="M31.84375,0.0145046268 C32.0002648,-0.0124457626 32.1609477,-0.00173357046 32.3125,0.0457546268 L32.3125,0.0457546268 L63.3125,10.6395046 C63.7013162,10.7052109 64.0152268,10.9932557 64.1140439,11.3750024 C64.212861,11.7567491 64.0781355,12.1609257 63.7700338,12.4070328 C63.4619321,12.6531399 63.0379767,12.6952293 62.6875,12.5145046 L62.6875,12.5145046 L32,2.04575463 L2,12.2957546 L2,56.0770046 C2,62.3132046 5.292618,68.3998046 11.5,73.8270046 C17.147706,78.7650046 25.049212,82.4583046 32,83.9520046 C38.950773,82.4583046 46.852274,78.7650046 52.5,73.8270046 C58.707383,68.3998046 62,62.3132046 62,56.0770046 L62,56.0770046 L62,21.2645046 C61.9948997,20.9038687 62.1843753,20.5684233 62.4958728,20.3866169 C62.8073704,20.2048105 63.1926296,20.2048105 63.5041272,20.3866169 C63.8156247,20.5684233 64.0051003,20.9038687 64,21.2645046 L64,21.2645046 L64,56.0770046 C64,63.0202046 60.314953,69.6418046 53.8125,75.3270046 C47.78707,80.5952046 39.585273,84.4441546 32.21875,85.9832546 C32.0747039,86.0155434 31.9252961,86.0155434 31.78125,85.9832546 C24.414712,84.4441546 16.212912,80.5952046 10.1875,75.3270046 C3.685048,69.6418046 -1.61648472e-11,63.0202046 -1.61648472e-11,56.0770046 L-1.61648472e-11,56.0770046 L-1.61648472e-11,11.5770046 C0.00534773401,11.1497201 0.281581718,10.7730374 0.6875,10.6395046 L0.6875,10.6395046 L31.6875,0.0457546268 C31.7386693,0.031198758 31.7909184,0.0207489319 31.84375,0.0145046268 Z M49.8267425,42.0001004 C51.0981096,42.0001004 51.0981096,44.0001004 49.8267425,44.0001004 L49.8267425,44.0001004 L15.0142425,44.0001004 C14.6536066,44.0052007 14.3181611,43.8157251 14.1363548,43.5042276 C13.9545484,43.19273 13.9545484,42.8074708 14.1363548,42.4959733 C14.3181611,42.1844757 14.6536066,41.9950001 15.0142425,42.0001004 L15.0142425,42.0001004 Z" id="Combined-Shape"></path>
                        </g>
                    </g>
                </g>
            </g>
        </g>
    </g>
</svg>