<?xml version="1.0" encoding="UTF-8"?>
<svg width="78px" height="87px" viewBox="0 0 78 87" version="1.1" xmlns="http://www.w3.org/2000/svg" xmlns:xlink="http://www.w3.org/1999/xlink">
    <!-- Generator: Sketch 63 (92445) - https://sketch.com -->
    <title>Shape</title>
    <desc>Created with Sketch.</desc>
    <g id="Page-1" stroke="none" stroke-width="1" fill="none" fill-rule="evenodd">
        <g id="Proposal_exploration_1_0_0" transform="translate(-84.000000, -1079.000000)" fill="#309282" fill-rule="nonzero">
            <g id="Voters" transform="translate(30.000000, 1057.000000)">
                <g id="1">
                    <g id="noun_like_3125975" transform="translate(54.000000, 21.000000)">
                        <g id="Group" transform="translate(0.000000, 0.637820)">
                            <path d="M49.436173,0.371951834 C49.0635552,0.420679276 48.749703,0.674175284 48.623673,1.02820183 L45.061173,10.1219518 C44.8669776,10.4628565 44.8900496,10.8858216 45.1201739,11.2035804 C45.3502983,11.5213391 45.7449642,11.6751919 46.1294341,11.5970208 C46.513904,11.5188496 46.8171549,11.2230951 46.904923,10.8407018 L50.498673,1.74695183 C50.6368499,1.41532662 50.5865365,1.03506758 50.3668676,0.750790115 C50.1471986,0.46651265 49.79193,0.321900909 49.436173,0.371951834 Z M37.342423,3.99695183 C37.064387,4.01956125 36.8084287,4.1572659 36.6363473,4.37681813 C36.4642658,4.59637036 36.391701,4.87781582 36.436173,5.15320183 L37.061173,9.52820183 C37.0893931,9.90417049 37.3266537,10.2323172 37.6748387,10.3769409 C38.0230237,10.5215646 38.4229525,10.4580838 38.7092395,10.2127503 C38.9955265,9.96741673 39.1195119,9.58192941 39.029923,9.21570183 L38.404923,4.87195183 C38.3397073,4.34419417 37.8728925,3.95975846 37.342423,3.99695183 Z M56.279923,11.2157018 C56.0961993,11.2408537 55.9230864,11.3165906 55.779923,11.4344518 L52.342423,14.1844518 C52.0051248,14.3802559 51.8124221,14.7542785 51.848773,15.1425927 C51.8851238,15.5309069 52.143896,15.8626662 52.5116746,15.9924667 C52.8794533,16.1222672 53.2891385,16.0264273 53.561173,15.7469518 L56.998673,12.9969518 C57.3484217,12.7219944 57.4744921,12.2490601 57.3080175,11.8364927 C57.1415429,11.4239252 56.7225526,11.1709277 56.279923,11.2157018 L56.279923,11.2157018 Z M42.717423,17.6219518 C41.838732,17.6754518 40.932908,17.9206918 40.092423,18.4344518 C38.411452,19.4619618 37.122882,21.5240218 36.936173,24.6532018 C36.579466,30.5426218 35.726755,36.6840318 34.217423,41.2469518 C33.462757,43.5283518 32.52581,45.4097018 31.498673,46.6532018 C30.471536,47.8967018 29.417461,48.4969518 28.186173,48.4969518 L24.061173,48.4969518 C23.7005371,48.4918515 23.3650917,48.6813271 23.1832853,48.9928247 C23.0014789,49.3043222 23.0014789,49.6895814 23.1832853,50.001079 C23.3650917,50.3125765 23.7005371,50.5020521 24.061173,50.4969518 L28.186173,50.4969518 C30.100167,50.4969518 31.78611,49.4781518 33.061173,47.9344518 C34.336236,46.3908518 35.290132,44.2973518 36.092423,41.8719518 C37.697005,37.0210718 38.572904,30.7759418 38.936173,24.7782018 C39.094677,22.1217118 40.07297,20.8145618 41.154923,20.1532018 C42.236876,19.4918418 43.53983,19.5069518 44.404923,19.8719518 C47.533592,21.1919918 49.311637,24.0885518 50.092423,28.3719518 C50.873209,32.6553518 50.58136,38.2052218 49.561173,44.3407018 C49.5057371,44.6311584 49.5816788,44.9312574 49.7685983,45.1603845 C49.9555178,45.3895116 50.234251,45.5241755 50.529923,45.5282018 L72.029923,45.5282018 C74.241133,45.5282018 75.998673,47.2767518 75.998673,49.4969518 C75.998673,51.7171518 74.241157,53.4657018 72.029923,53.4657018 L70.373673,53.4657018 C69.8269028,53.4734345 69.3877155,53.918877 69.3877155,54.4657018 C69.3877155,55.0125267 69.8269028,55.4579691 70.373673,55.4657018 C72.584883,55.4657018 74.342423,57.2143518 74.342423,59.4344518 C74.342423,61.6547518 72.584907,63.4032018 70.373673,63.4032018 L67.061173,63.4032018 C66.5144028,63.4109345 66.0752155,63.856377 66.0752155,64.4032018 C66.0752155,64.9500267 66.5144028,65.3954691 67.061173,65.4032018 C69.272382,65.4032018 71.029923,67.1517518 71.029923,69.3719518 C71.029923,71.5814518 69.288593,73.3551518 67.092423,73.3719518 L67.061173,73.3719518 C67.030583,73.3714518 66.388058,73.3447018 65.748673,73.3407018 L64.873673,73.3407018 C64.757633,73.3416018 64.677384,73.3407018 64.592423,73.3407018 C64.549943,73.3407018 64.602023,73.3069518 64.342423,73.3719518 C64.309973,73.3819518 64.186701,73.4344518 64.186173,73.4344518 C64.185909,73.4346518 64.061356,73.4959518 64.061173,73.4969518 C64.06099,73.4970518 63.811274,73.6843518 63.811173,73.6844518 C63.811072,73.6846518 63.592441,74.2156018 63.592423,74.2157018 C63.592405,74.2158018 63.686103,74.8406018 63.686173,74.8407018 C63.686238,74.8408018 63.936024,75.1217518 63.936173,75.1219518 C63.936322,75.1220518 64.12344,75.2467518 64.123673,75.2469518 C64.12414,75.2471518 64.24323,75.2984518 64.279923,75.3094518 C64.316613,75.3214518 64.353463,75.3367018 64.373673,75.3407018 C64.414103,75.3507018 64.416703,75.3407018 64.436173,75.3407018 C66.334912,75.6202018 67.717423,77.2967018 67.717423,79.3407018 C67.717423,81.5608018 65.991134,83.3094518 63.779923,83.3094518 C49.057238,83.3094518 43.5371,82.1046518 39.967423,80.8094518 C36.397746,79.5143518 34.402177,77.9470518 27.436173,77.4969518 C27.4153448,77.4963007 27.3945013,77.4963007 27.373673,77.4969518 L24.654923,77.4969518 L18.123673,47.6532018 C18.0709837,47.3912726 17.9158268,47.1613187 17.6927687,47.0145699 C17.4697105,46.8678211 17.1972811,46.8164682 16.936173,46.8719518 L0.779923019,50.4344518 C0.716573357,50.4388832 0.653789582,50.4493472 0.592423019,50.4657018 C0.149546408,50.6635131 -0.0876024867,51.1509858 0.0299230193,51.6219518 L7.46742302,85.6219518 C7.52011232,85.8838811 7.6752692,86.113835 7.89832738,86.2605838 C8.12138556,86.4073326 8.39381496,86.4586855 8.65492302,86.4032018 L24.779923,82.8407018 C25.0414827,82.7881101 25.2711899,82.6330432 25.4179201,82.4100133 C25.5646503,82.1869833 25.6162277,81.9144978 25.561173,81.6532018 L25.092423,79.4969518 L27.311173,79.4969518 L27.373673,79.4969518 C34.016227,79.9354518 35.475304,81.3041518 39.279923,82.6844518 C43.098694,84.0700518 48.946273,85.3094518 63.779923,85.3094518 C67.067088,85.3094518 69.717423,82.6318018 69.717423,79.3407018 C69.717423,77.7372018 69.0795,76.2801518 68.061173,75.1844518 C70.861291,74.6952518 73.029923,72.3128518 73.029923,69.3719518 C73.029923,67.7511518 72.362327,66.2937018 71.311173,65.2157018 C74.134902,64.7463018 76.342423,62.3922518 76.342423,59.4344518 C76.342423,57.6523518 75.521247,56.0929518 74.279923,54.9969518 C76.44863,54.1014518 77.998673,51.9866518 77.998673,49.4969518 C77.998673,46.2058518 75.317087,43.5282018 72.029923,43.5282018 L51.654923,43.5282018 C52.542106,37.7343018 52.856628,32.3608318 52.061173,27.9969518 C51.210707,23.3312818 49.05188,19.6592018 45.186173,18.0282018 C44.448118,17.7168018 43.596114,17.5684418 42.717423,17.6219518 Z M16.373673,49.0594518 L23.373673,81.0907018 L9.18617302,84.2157018 L2.18617302,52.1532018 L16.373673,49.0594518 Z M14.654923,74.8719518 C13.844449,74.8719518 13.186173,75.5595748 13.186173,76.3719518 C13.186173,77.1843288 13.844449,77.8407018 14.654923,77.8407018 C15.465397,77.8407018 16.123673,77.1843288 16.123673,76.3719518 C16.123673,75.5595748 15.465397,74.8719518 14.654923,74.8719518 Z" id="Shape"></path>
                        </g>
                    </g>
                </g>
            </g>
        </g>
    </g>
</svg>