<?xml version="1.0" encoding="utf-8"?>
<svg width="569px" height="540px" viewBox="0 0 569 540" version="1.1" xmlns:xlink="http://www.w3.org/1999/xlink" xmlns="http://www.w3.org/2000/svg">
  <desc>Created with Lunacy</desc>
  <defs>
    <path d="M37.5956 26.6455L13.938 26.6455L4.99759 8.57353L46.536 8.57353L37.5956 26.6455ZM47.0631 8.57344L4.4702 8.57344C2.00131 8.57344 0 6.65385 0 4.28672C0 1.91916 2.00131 0 4.4702 0L47.0631 0C49.532 0 51.5333 1.91916 51.5333 4.28672C51.5333 6.65385 49.532 8.57344 47.0631 8.57344Z" transform="translate(-3.836931E-13 0.0002572032)" id="path_1" />
    <path d="M28.2903 55.616C28.1549 55.6193 28.0191 55.621 27.883 55.621C18.9238 55.621 11.6611 48.3578 11.6611 39.3986C11.6611 30.4395 18.9238 23.1763 27.883 23.1763C29.7966 23.1763 31.6329 23.5076 33.3375 24.1161C41.3311 9.73287 56.6798 0 74.3017 0C91.1116 0 105.853 8.85594 114.115 22.1565C115.753 21.5998 117.509 21.2978 119.336 21.2978C128.295 21.2978 135.558 28.561 135.558 37.5202C135.558 46.0412 128.988 53.0277 120.638 53.6906C117.32 76.3059 97.8389 93.6681 74.3017 93.6681C51.4378 93.6681 32.4007 77.2839 28.2903 55.616L28.2903 55.616ZM0.0337679 100.411C-0.458401 93.8183 4.48743 88.0754 11.0801 87.5833L27.6426 86.3477C34.2353 85.8555 39.9781 90.8014 40.4698 97.3936L43.287 135.147C43.7787 141.74 38.8333 147.483 32.2411 147.975L15.6781 149.211C9.08547 149.702 3.34261 144.757 2.85089 138.164L0.0337679 100.411ZM108.051 97.4422C108.086 90.8313 113.474 85.501 120.085 85.5363L136.693 85.6244C143.304 85.6601 148.635 91.0476 148.599 97.6581L148.398 135.516C148.363 142.127 142.975 147.458 136.364 147.422L119.756 147.334C113.145 147.298 107.815 141.911 107.85 135.3L108.051 97.4422Z" id="path_2" />
    <path d="M54.8706 6.06955C55.3172 2.64472 58.2462 0 61.7928 0C65.6479 0 68.7734 3.12556 68.7734 6.98111C68.7734 10.8367 65.6479 13.9622 61.7928 13.9622C58.9729 13.9622 56.5435 12.2903 55.4418 9.88366L50.5733 6.15879L43.9487 11.2273L37.3289 6.15913L30.7072 11.2274L24.0873 6.15915L17.4661 11.2274L13.8113 8.42963C13.1445 11.59 10.34 13.9622 6.98111 13.9622C3.12556 13.9622 0 10.8367 0 6.98111C0 3.12556 3.12556 0 6.98111 0C10.1241 0 12.7818 2.07709 13.6567 4.9335L17.4662 7.84969L24.0875 2.78133L30.7074 7.84967L37.3291 2.78136L43.9492 7.84979L50.5733 2.78169L54.8706 6.06955ZM59.2709 70.8901L9.02144 70.8901C5.02061 70.8901 1.77749 67.647 1.77749 63.6462L1.77749 30.4522C1.77749 26.4514 5.02061 23.2078 9.02144 23.2078L59.2709 23.2078C63.2718 23.2078 66.5149 26.4514 66.5149 30.4522L66.5149 63.6462C66.5149 67.647 63.2718 70.8901 59.2709 70.8901ZM54.5873 77.4605L13.7046 77.4605C11.8906 77.4605 10.4195 75.9898 10.4195 74.1753C10.4195 72.3609 11.8906 70.8902 13.7046 70.8902L54.5873 70.8902C56.4017 70.8902 57.8724 72.3609 57.8724 74.1753C57.8724 75.9898 56.4017 77.4605 54.5873 77.4605Z" transform="translate(0.3301689 0)" id="path_3" />
    <clipPath id="mask_1">
      <use xlink:href="#path_1" />
    </clipPath>
    <clipPath id="mask_2">
      <use xlink:href="#path_2" />
    </clipPath>
    <clipPath id="mask_3">
      <use xlink:href="#path_3" />
    </clipPath>
  </defs>
  <g id="Illustration-19">
    <g id="Background-Object-/-Sofa-/-4" transform="matrix(-1 0 0 1 467.1357 298.6093)">
      <g id="Group-17">
        <path d="M0 0L18.9702 88.3664L31.5194 88.3664L12.5492 0L0 0Z" transform="translate(316.4998 89.9611)" id="Fill-1" fill="#CCE3FF" stroke="none" />
        <path d="M0 13.6694L324.821 13.6694L324.821 0L0 0L0 13.6694Z" transform="translate(11.52641 76.29109)" id="Fill-2" fill="#D7EBFF" stroke="none" />
        <path d="M0 13.6699L63.3297 13.6699L63.3297 0L0 0L0 13.6699Z" transform="translate(267.473 125.7945)" id="Fill-3" fill="#D7EBFF" stroke="none" />
        <path d="M14.2358 0L0 76.2911L17.1794 76.2911L31.4152 0L14.2358 0Z" transform="translate(64.40448 0)" id="Fill-4" fill="#CCE3FF" stroke="none" />
        <path d="M14.2358 0L0 76.2911L17.179 76.2911L31.4148 0L14.2358 0Z" transform="translate(312.0102 0)" id="Fill-5" fill="#CCE3FF" stroke="none" />
        <path d="M0 13.6694L76.1708 13.6694L76.1708 0L0 0L0 13.6694Z" transform="translate(260.1767 76.29154)" id="Fill-6" fill="#B6D4FF" stroke="none" />
        <path d="M19.7288 0L17.1821 13.6726L0 13.6726L2.55159 0L19.7288 0Z" transform="translate(340.8291 49.73096)" id="Fill-7" fill="#CCE3FF" stroke="none" />
        <path d="M291.656 0L289.104 13.6726L0 13.6726L2.55159 0L291.656 0Z" transform="translate(51.72494 49.73096)" id="Fill-8" fill="#D7EBFF" stroke="none" />
        <path d="M19.7288 0L17.1821 13.6676L0 13.6676L2.55159 0L19.7288 0Z" transform="translate(345.4674 24.86637)" id="Fill-9" fill="#CCE3FF" stroke="none" />
        <path d="M291.656 0L289.104 13.6676L0 13.6676L2.55159 0L291.656 0Z" transform="translate(56.36322 24.86637)" id="Fill-10" fill="#D7EBFF" stroke="none" />
        <path d="M2.54623 0L0 13.6681L17.1767 13.6681L19.7234 0L2.54623 0Z" transform="translate(350.1107 0.001609272)" id="Fill-11" fill="#CCE3FF" stroke="none" />
        <path d="M2.55159 0L0 13.6681L289.105 13.6681L291.651 0L2.55159 0Z" transform="translate(61.00578 0.001609272)" id="Fill-12" fill="#D7EBFF" stroke="none" />
        <path d="M18.9702 0L0 88.3664L12.5496 88.3664L31.5194 0L18.9702 0Z" transform="translate(248.5028 89.9611)" id="Fill-13" fill="#CCE3FF" stroke="none" />
        <path d="M0 0L18.9702 88.3664L31.5189 88.3664L12.5492 0L0 0Z" transform="translate(67.99695 89.96069)" id="Fill-14" fill="#CCE3FF" stroke="none" />
        <path d="M0 13.6694L63.3302 13.6694L63.3302 0L0 0L0 13.6694Z" transform="translate(18.96973 125.7945)" id="Fill-15" fill="#D7EBFF" stroke="none" />
        <path d="M18.9697 0L0 88.3664L12.5496 88.3664L31.5189 0L18.9697 0Z" transform="translate(-4.470199E-05 89.96069)" id="Fill-16" fill="#CCE3FF" stroke="none" />
      </g>
    </g>
    <g id="Background-Object-/-Trach" transform="translate(0 333.0298)">
      <g id="Group-18">
        <path d="M89.6753 6.97574L81.3594 127.432L8.33106 127.432L0.0160447 6.97574C-0.246356 3.20334 2.74331 0 6.52376 0L83.1671 0C86.9475 0 89.9377 3.20334 89.6753 6.97574" transform="translate(3.861808 16.1582)" id="Fill-1" fill="#DCEEFF" stroke="none" />
        <path d="M0.223511 0L0.223511 81.2347" transform="translate(48.48409 43.32449)" id="Stroke-3" fill="none" stroke="#B6D4FF" stroke-width="16" stroke-linecap="round" />
        <path d="M5.64854 0L0 81.2347" transform="translate(68.96394 43.32449)" id="Stroke-5" fill="none" stroke="#B6D4FF" stroke-width="16" stroke-linecap="round" />
        <path d="M0 0L5.64854 81.2347" transform="translate(22.80271 43.32449)" id="Stroke-7" fill="none" stroke="#B6D4FF" stroke-width="16" stroke-linecap="round" />
        <path d="M96.2112 13.4692L0 13.4692L0 8.36106C0 3.74334 3.74334 0 8.36151 0L87.8501 0C92.4678 0 96.2112 3.74334 96.2112 8.36106L96.2112 13.4692Z" transform="translate(0.446707 10.26241)" id="Fill-9" fill="#DCEEFF" stroke="none" />
        <path d="M0 0.22351L89.6919 0.22351" transform="translate(3.861537 26.46805)" id="Stroke-12" fill="none" stroke="#CCE3FF" stroke-width="14" />
        <path d="M0 8.62793L3.88594 8.62793L3.88594 0L0 0L0 8.62793Z" transform="translate(31.00977 3.403609)" id="Fill-14" fill="#DCEEFF" stroke="none" />
        <path d="M0 8.62793L3.88594 8.62793L3.88594 0L0 0L0 8.62793Z" transform="translate(61.14606 2.596738)" id="Fill-16" fill="#DCEEFF" stroke="none" />
        <path d="M0 4.77954L34.0222 4.77954L34.0222 0L0 0L0 4.77954Z" transform="translate(31.00977 0)" id="Fill-17" fill="#DCEEFF" stroke="none" />
      </g>
    </g>
    <g id="Background-Object-/-Streetlight-/-1" transform="translate(413.9404 0)">
      <g id="Group-11">
        <path d="M0 318.217L7.15231 318.217L7.15231 0L0 0L0 318.217Z" transform="translate(136.506 40.63902)" id="Fill-1" fill="#D7EBFF" stroke="none" />
        <path d="M59.7047 36.1077L3.10308 17.3445C0.738792 16.5609 -0.554884 13.9847 0.229189 11.6204L3.05257 3.10291C3.83664 0.738621 6.41237 -0.554608 8.77666 0.229018L65.3783 18.9922C67.7426 19.7759 69.0363 22.352 68.2522 24.7163L65.4288 33.2338C64.6452 35.5981 62.069 36.8914 59.7047 36.1077" transform="translate(3.312952 12.62996)" id="Fill-2" fill="#ECF6FF" stroke="none" />
        <path d="M0 105.464L27.4157 105.464L27.4157 0L0 0L0 105.464Z" transform="translate(126.3743 371.372)" id="Fill-4" fill="#CCE3FF" stroke="none" />
        <path d="M0 36.0857L15.7941 36.0857L15.7941 0L0 0L0 36.0857Z" transform="translate(132.1851 354.9548)" id="Fill-6" fill="#CCE3FF" stroke="none" />
        <path d="M0 15.3006L13.1442 15.3006L13.1442 0L0 0L0 15.3006Z" transform="translate(133.5105 32.94537)" id="Fill-7" fill="#CCE3FF" stroke="none" />
        <path d="M0 0C0 0 96.2537 21.2822 96.2537 73.01" transform="translate(43.82856 23.53278)" id="Stroke-8" fill="none" stroke="#DCEEFF" stroke-width="15" stroke-linejoin="bevel" />
        <path d="M69.3378 42.9821L7.28743 22.4125C1.73455 20.5721 -1.30251 14.5222 0.537874 8.96929L1.09531 7.2876C2.93614 1.73472 8.98565 -1.30278 14.539 0.538044L76.5894 21.1072C82.1422 22.948 85.1793 28.9976 83.3385 34.5509L82.781 36.2326C80.9402 41.7855 74.8907 44.823 69.3378 42.9821" transform="translate(0.0001148651 0.001240355)" id="Fill-9" fill="#CCE3FF" stroke="none" />
      </g>
    </g>
    <g id="Person-/-Robot-/-1" transform="translate(166.2914 250.7782)">
      <g id="Robot-/-Legs-/-1" transform="translate(0 129.6358)">
        <g id="Group-20" transform="translate(0 0.1050832)">
          <path d="M188.115 137.059L0 137.059C0.869007 114.729 14.5778 105.189 35.4844 104.661C49.2848 67.2462 79.5226 105.419 81.6991 75.8231C84.2565 41.0196 84.9919 0 84.9919 0L102.819 0.295355C102.819 0.295355 104.308 22.2562 107.397 66.9972C109.587 98.6884 131.902 69.2974 161.213 88.5032C176.009 98.1985 175.349 121.653 175.349 121.653C175.349 121.653 188.115 122.292 188.115 137.059" transform="translate(4.470199E-05 21.7786)" id="Fill-1" fill="#B5B8BC" stroke="none" />
          <path d="M46.1414 18.2278L0 18.2278C2.00712 8.32546 10.5765 1.10233 20.6702 0.112097C22.6058 -0.0718026 24.595 -0.0336508 26.6066 0.257846C27.7644 0.429315 28.8909 0.673658 29.9816 0.995162C32.9722 1.87437 35.6811 3.29713 37.9967 5.13185C42.1763 8.42877 45.0909 13.058 46.1414 18.2278" transform="translate(18.4933 140.6097)" id="Fill-3" fill="#D7DADD" stroke="none" />
          <path d="M24.9705 10.2583L0 10.2583C1.02368 5.7015 4.28245 2.01063 8.56937 0.608877C9.57964 0.278799 10.648 0.0730364 11.7611 0.0173091C12.4003 -0.0169849 13.0351 0.000162359 13.652 0.064463C19.0922 0.61745 23.6384 4.74128 24.9705 10.2583" transform="translate(142.2148 148.5792)" id="Fill-5" fill="#D7DADD" stroke="none" />
          <path d="M71.5313 37.8658L0.17795 37.8658C-0.117083 35.0452 -0.0500302 32.1474 0.41487 29.2195C0.656261 27.6977 1.00047 26.2107 1.43408 24.7699C6.36917 8.45508 23.271 -2.22786 41.2591 0.395615C45.5102 1.01719 49.4708 2.32935 53.0381 4.19794C65.4071 10.6623 73.0377 23.7968 71.5313 37.8658" transform="translate(55.05582 120.9716)" id="Fill-7" fill="#D7DADD" stroke="none" />
          <path d="M14.0067 7.77075C13.4215 11.4586 9.82974 13.9929 5.98448 13.4318C2.13876 12.8707 -0.504018 9.42628 0.0811316 5.73885C0.666281 2.05098 4.25764 -0.48333 8.10335 0.0778015C11.9486 0.638934 14.5918 4.08289 14.0067 7.77075" transform="translate(55.92585 86.18237)" id="Fill-9" fill="#D7DADD" stroke="none" />
          <path d="M5.78046 3.20726C5.53906 4.72904 4.05675 5.775 2.46983 5.54352C0.88246 5.3116 -0.208268 3.89056 0.0335699 2.36834C0.274961 0.846559 1.75728 -0.199399 3.3442 0.032083C4.93112 0.263995 6.02185 1.68504 5.78046 3.20726" transform="translate(115.2872 92.02644)" id="Fill-11" fill="#D7DADD" stroke="none" />
          <path d="M13.3399 7.40099C12.7825 10.9127 9.36191 13.3265 5.69947 12.7924C2.03704 12.2579 -0.480133 8.97765 0.0773005 5.46554C0.634734 1.95343 4.05533 -0.460427 7.71777 0.0741277C11.3802 0.608253 13.8974 3.88888 13.3399 7.40099" transform="translate(191.3423 134.1762)" id="Fill-13" fill="#D7DADD" stroke="none" />
          <g id="Legs-color" transform="translate(68.83605 0)">
            <g id="Mask">
              <path d="M37.5956 26.6455L13.938 26.6455L4.99759 8.57353L46.536 8.57353L37.5956 26.6455ZM47.0631 8.57344L4.4702 8.57344C2.00131 8.57344 0 6.65385 0 4.28672C0 1.91916 2.00131 0 4.4702 0L47.0631 0C49.532 0 51.5333 1.91916 51.5333 4.28672C51.5333 6.65385 49.532 8.57344 47.0631 8.57344Z" transform="translate(-3.836931E-13 0.0002572032)" id="path-1" fill="#6CA1FF" stroke="none" />
            </g>
            <g id="Colors-/-Skin-/-Red-Clipped">
              <path d="M37.5956 26.6455L13.938 26.6455L4.99759 8.57353L46.536 8.57353L37.5956 26.6455ZM47.0631 8.57344L4.4702 8.57344C2.00131 8.57344 0 6.65385 0 4.28672C0 1.91916 2.00131 0 4.4702 0L47.0631 0C49.532 0 51.5333 1.91916 51.5333 4.28672C51.5333 6.65385 49.532 8.57344 47.0631 8.57344Z" transform="translate(-3.836931E-13 0.0002572032)" id="path-1" fill="none" stroke="none" />
              <g clip-path="url(#mask_1)">
                <g id="Colors-/-Skin-/-Red">
                  <g id="Color" transform="translate(0.005006623 0)">
                    <path d="M0 0L51.4073 0L51.4073 26.3742L0 26.3742L0 0Z" id="Rectangle" fill="#CE3D29" stroke="none" />
                  </g>
                </g>
              </g>
            </g>
          </g>
          <g id="Overlay" transform="translate(73.75828 8.573441)" opacity="0.402157724">
            <path d="M32.598 18.072L8.9404 18.072L0 0L41.5384 0L32.598 18.072Z" id="Fill-16" fill="#000000" stroke="none" />
          </g>
        </g>
      </g>
      <g id="Robot-/-Body-/-3" transform="translate(22.35099 71.07616)">
        <g id="Group-24">
          <path d="M9.4205 27.7684L0 17.5527L13.6578 0L30.0549 14.2255L24.1413 26.7148" transform="translate(9.836359 145.8441)" id="Stroke-1" fill="none" stroke="#19141E" stroke-width="15" />
          <path d="M8.44465 27.2628L0 16.2273L15.209 0L30.2333 15.6676L23.2003 27.5628" transform="translate(113.116 145.5076)" id="Stroke-3" fill="none" stroke="#19141E" stroke-width="15" />
          <path d="M6.77011 49.6362L0 0" transform="translate(121.7228 49.47097)" id="Stroke-5" fill="none" stroke="#19141E" stroke-width="27" stroke-linecap="round" />
          <path d="M0 49.5843L7.13712 0" transform="translate(20.36614 48.0106)" id="Stroke-13" fill="none" stroke="#19141E" stroke-width="27" stroke-linecap="round" />
          <path d="M24.4743 29.6741L5.20018 29.6741C2.32808 29.6741 0 27.346 0 24.4739L0 5.19974C0 2.32808 2.32808 0 5.20018 0L24.4743 0C27.346 0 29.6741 2.32808 29.6741 5.19974L29.6741 24.4739C29.6741 27.346 27.346 29.6741 24.4743 29.6741" transform="translate(75.66124 40.24953)" id="Fill-17" fill="#19141E" stroke="none" />
          <path d="M19.5571 29.6741L5.20018 29.6741C2.32808 29.6741 0 27.346 0 24.4739L0 5.19974C0 2.32808 2.32808 0 5.20018 0L19.5571 0C22.4288 0 24.7569 2.32808 24.7569 5.19974L24.7569 24.4739C24.7569 27.346 22.4288 29.6741 19.5571 29.6741" transform="translate(75.66124 40.24953)" id="Fill-18" fill="#405FD3" stroke="none" />
          <g id="Body-color" transform="translate(-6.258278E-05 8.252344)">
            <g id="Mask">
              <path d="M28.2903 55.616C28.1549 55.6193 28.0191 55.621 27.883 55.621C18.9238 55.621 11.6611 48.3578 11.6611 39.3986C11.6611 30.4395 18.9238 23.1763 27.883 23.1763C29.7966 23.1763 31.6329 23.5076 33.3375 24.1161C41.3311 9.73287 56.6798 0 74.3017 0C91.1116 0 105.853 8.85594 114.115 22.1565C115.753 21.5998 117.509 21.2978 119.336 21.2978C128.295 21.2978 135.558 28.561 135.558 37.5202C135.558 46.0412 128.988 53.0277 120.638 53.6906C117.32 76.3059 97.8389 93.6681 74.3017 93.6681C51.4378 93.6681 32.4007 77.2839 28.2903 55.616L28.2903 55.616ZM0.0337679 100.411C-0.458401 93.8183 4.48743 88.0754 11.0801 87.5833L27.6426 86.3477C34.2353 85.8555 39.9781 90.8014 40.4698 97.3936L43.287 135.147C43.7787 141.74 38.8333 147.483 32.2411 147.975L15.6781 149.211C9.08547 149.702 3.34261 144.757 2.85089 138.164L0.0337679 100.411ZM108.051 97.4422C108.086 90.8313 113.474 85.501 120.085 85.5363L136.693 85.6244C143.304 85.6601 148.635 91.0476 148.599 97.6581L148.398 135.516C148.363 142.127 142.975 147.458 136.364 147.422L119.756 147.334C113.145 147.298 107.815 141.911 107.85 135.3L108.051 97.4422Z" id="path-3" fill="#6CA1FF" stroke="none" />
            </g>
            <g id="Colors-/-Skin-/-Red-Clipped">
              <path d="M28.2903 55.616C28.1549 55.6193 28.0191 55.621 27.883 55.621C18.9238 55.621 11.6611 48.3578 11.6611 39.3986C11.6611 30.4395 18.9238 23.1763 27.883 23.1763C29.7966 23.1763 31.6329 23.5076 33.3375 24.1161C41.3311 9.73287 56.6798 0 74.3017 0C91.1116 0 105.853 8.85594 114.115 22.1565C115.753 21.5998 117.509 21.2978 119.336 21.2978C128.295 21.2978 135.558 28.561 135.558 37.5202C135.558 46.0412 128.988 53.0277 120.638 53.6906C117.32 76.3059 97.8389 93.6681 74.3017 93.6681C51.4378 93.6681 32.4007 77.2839 28.2903 55.616L28.2903 55.616ZM0.0337679 100.411C-0.458401 93.8183 4.48743 88.0754 11.0801 87.5833L27.6426 86.3477C34.2353 85.8555 39.9781 90.8014 40.4698 97.3936L43.287 135.147C43.7787 141.74 38.8333 147.483 32.2411 147.975L15.6781 149.211C9.08547 149.702 3.34261 144.757 2.85089 138.164L0.0337679 100.411ZM108.051 97.4422C108.086 90.8313 113.474 85.501 120.085 85.5363L136.693 85.6244C143.304 85.6601 148.635 91.0476 148.599 97.6581L148.398 135.516C148.363 142.127 142.975 147.458 136.364 147.422L119.756 147.334C113.145 147.298 107.815 141.911 107.85 135.3L108.051 97.4422Z" id="path-3" fill="none" stroke="none" />
              <g clip-path="url(#mask_2)">
                <g id="Colors-/-Skin-/-Red" transform="translate(0 3.129139)">
                  <g id="Color" transform="translate(6.258278E-05 0.2410331)">
                    <path d="M0 0L148.411 0L148.411 145.728L0 145.728L0 0Z" id="Rectangle" fill="#CE3D29" stroke="none" />
                  </g>
                </g>
              </g>
            </g>
          </g>
          <path d="M0 11.8286L35.7674 11.8286L35.7674 0L0 0L0 11.8286Z" transform="translate(56.41838 -5.684342E-14)" id="Fill-11" fill="#19141E" stroke="none" />
          <path d="M0 29.6741C2.87165 29.6741 5.19973 27.346 5.19973 24.4739L5.19973 5.19974C5.19973 2.32808 2.87165 0 0 0L4.91722 0C7.78887 0 10.117 2.32808 10.117 5.19974L10.117 24.4739C10.117 27.346 7.78887 29.6741 4.91722 29.6741L0 29.6741Z" transform="translate(95.21836 40.24953)" id="Path" fill="#19141E" stroke="none" />
          <g id="Overlay" transform="translate(7.152318 29.72682)">
            <path d="M0 0.629717L2.97358 38.394L0 0.629717ZM7.37055 0L10.3441 37.7642L7.37055 0Z" transform="translate(-1.77458E-12 77.55795)" id="Shape" fill="none" stroke="#000000" stroke-opacity="0.401762456" stroke-width="9" stroke-linecap="round" stroke-linejoin="round" />
            <path d="M19.5571 29.6741L5.20018 29.6741C2.32808 29.6741 0 27.346 0 24.4739L0 5.19974C0 2.32808 2.32808 0 5.20018 0L19.5571 0C22.4288 0 24.7569 2.32808 24.7569 5.19974L24.7569 24.4739C24.7569 27.346 22.4288 29.6741 19.5571 29.6741ZM7.65611 13.3458C9.73654 13.3458 11.4236 11.6592 11.4236 9.57829C11.4236 7.49786 9.73654 5.81126 7.65611 5.81126C5.57568 5.81126 3.88907 7.49786 3.88907 9.57829C3.88907 11.6592 5.57568 13.3458 7.65611 13.3458ZM18.3619 13.3458C20.4424 13.3458 22.1294 11.6592 22.1294 9.57829C22.1294 7.49786 20.4424 5.81126 18.3619 5.81126C16.2815 5.81126 14.5944 7.49786 14.5944 9.57829C14.5944 11.6592 16.2815 13.3458 18.3619 13.3458ZM7.65611 24.2342C9.73654 24.2342 11.4236 22.5476 11.4236 20.4668C11.4236 18.3863 9.73654 16.6997 7.65611 16.6997C5.57568 16.6997 3.88907 18.3863 3.88907 20.4668C3.88907 22.5476 5.57568 24.2342 7.65611 24.2342Z" transform="translate(68.52814 10.50497)" id="Shape" fill="#000000" fill-opacity="0.3977632" stroke="none" />
            <path d="M0 16.2224C0 25.1815 7.26273 32.4447 16.2219 32.4447C25.1811 32.4447 32.4443 25.1815 32.4443 16.2224C32.4443 7.26318 25.1811 0 16.2219 0C7.26273 0 0 7.26318 0 16.2224" transform="translate(4.023179 1.56457)" id="Fill-14" fill="#000000" fill-opacity="0.404203862" stroke="none" />
            <path d="M0.20178 11.9061L0.000174453 49.7638C-0.0351401 56.3747 5.29557 61.7622 11.9061 61.7975L28.5147 61.8861C35.1252 61.9214 40.5131 56.5907 40.548 49.9797L40.7496 12.122C40.7849 5.51148 35.4542 0.123999 28.8437 0.0882374L12.2351 0.000174468C5.62458 -0.0351401 0.236648 5.29513 0.20178 11.9061" transform="translate(101.0265 64.14735)" id="Fill-16" fill="#000000" fill-opacity="0.398763031" stroke="none" />
            <path d="M0 0.85872C1.63854 0.301972 3.39479 0 5.22158 0C14.1808 0 21.4439 7.26318 21.4439 16.2224C21.4439 24.7434 14.8738 31.7299 6.52316 32.3928C6.85145 30.1549 7.02146 27.8655 7.02146 25.5365C7.02146 16.4803 4.45107 8.02448 0 0.85872L0 0.85872Z" transform="translate(106.8377 -2.842171E-14)" id="Path" fill="#000000" fill-opacity="0.3978562" stroke="none" />
            <path d="M3.76704 7.53452C5.84747 7.53452 7.53452 5.84791 7.53452 3.76704C7.53452 1.68661 5.84747 0 3.76704 0C1.68661 0 0 1.68661 0 3.76704C0 5.84791 1.68661 7.53452 3.76704 7.53452" transform="translate(72.41722 27.20116)" id="Fill-19" fill="#000000" fill-opacity="0.5981213" stroke="none" />
          </g>
        </g>
      </g>
      <g id="Robot-/-Head-/-4" transform="translate(53.64238 0)">
        <g id="Group-24">
          <path d="M0.223511 31.2225L0.223511 0" transform="translate(71.73373 12.19564)" id="Stroke-1" fill="none" stroke="#19141E" stroke-width="7" />
          <path d="M12.9099 19.2429L0 19.2429L0 0L12.9099 0C18.2018 0 22.5311 4.32939 22.5311 9.62121C22.5311 14.913 18.2018 19.2429 12.9099 19.2429" transform="translate(61.85691 37.42768)" id="Fill-5" fill="#19141E" stroke="none" />
          <g id="Face-color" transform="translate(9.834437 -4.470199E-05)">
            <g id="Mask">
              <path d="M54.8706 6.06955C55.3172 2.64472 58.2462 0 61.7928 0C65.6479 0 68.7734 3.12556 68.7734 6.98111C68.7734 10.8367 65.6479 13.9622 61.7928 13.9622C58.9729 13.9622 56.5435 12.2903 55.4418 9.88366L50.5733 6.15879L43.9487 11.2273L37.3289 6.15913L30.7072 11.2274L24.0873 6.15915L17.4661 11.2274L13.8113 8.42963C13.1445 11.59 10.34 13.9622 6.98111 13.9622C3.12556 13.9622 0 10.8367 0 6.98111C0 3.12556 3.12556 0 6.98111 0C10.1241 0 12.7818 2.07709 13.6567 4.9335L17.4662 7.84969L24.0875 2.78133L30.7074 7.84967L37.3291 2.78136L43.9492 7.84979L50.5733 2.78169L54.8706 6.06955ZM59.2709 70.8901L9.02144 70.8901C5.02061 70.8901 1.77749 67.647 1.77749 63.6462L1.77749 30.4522C1.77749 26.4514 5.02061 23.2078 9.02144 23.2078L59.2709 23.2078C63.2718 23.2078 66.5149 26.4514 66.5149 30.4522L66.5149 63.6462C66.5149 67.647 63.2718 70.8901 59.2709 70.8901ZM54.5873 77.4605L13.7046 77.4605C11.8906 77.4605 10.4195 75.9898 10.4195 74.1753C10.4195 72.3609 11.8906 70.8902 13.7046 70.8902L54.5873 70.8902C56.4017 70.8902 57.8724 72.3609 57.8724 74.1753C57.8724 75.9898 56.4017 77.4605 54.5873 77.4605Z" transform="translate(0.3301689 0)" id="path-5" fill="#6CA1FF" stroke="none" />
            </g>
            <g id="Colors-/-Skin-/-Red-Clipped">
              <path d="M54.8706 6.06955C55.3172 2.64472 58.2462 0 61.7928 0C65.6479 0 68.7734 3.12556 68.7734 6.98111C68.7734 10.8367 65.6479 13.9622 61.7928 13.9622C58.9729 13.9622 56.5435 12.2903 55.4418 9.88366L50.5733 6.15879L43.9487 11.2273L37.3289 6.15913L30.7072 11.2274L24.0873 6.15915L17.4661 11.2274L13.8113 8.42963C13.1445 11.59 10.34 13.9622 6.98111 13.9622C3.12556 13.9622 0 10.8367 0 6.98111C0 3.12556 3.12556 0 6.98111 0C10.1241 0 12.7818 2.07709 13.6567 4.9335L17.4662 7.84969L24.0875 2.78133L30.7074 7.84967L37.3291 2.78136L43.9492 7.84979L50.5733 2.78169L54.8706 6.06955ZM59.2709 70.8901L9.02144 70.8901C5.02061 70.8901 1.77749 67.647 1.77749 63.6462L1.77749 30.4522C1.77749 26.4514 5.02061 23.2078 9.02144 23.2078L59.2709 23.2078C63.2718 23.2078 66.5149 26.4514 66.5149 30.4522L66.5149 63.6462C66.5149 67.647 63.2718 70.8901 59.2709 70.8901ZM54.5873 77.4605L13.7046 77.4605C11.8906 77.4605 10.4195 75.9898 10.4195 74.1753C10.4195 72.3609 11.8906 70.8902 13.7046 70.8902L54.5873 70.8902C56.4017 70.8902 57.8724 72.3609 57.8724 74.1753C57.8724 75.9898 56.4017 77.4605 54.5873 77.4605Z" transform="translate(0.3301689 0)" id="path-5" fill="none" stroke="none" />
              <g clip-path="url(#mask_3)">
                <g id="Colors-/-Skin-/-Red" transform="translate(-0.4470199 0)">
                  <g id="Color" transform="translate(0 4.470199E-05)">
                    <path d="M0 0L69.7351 0L69.7351 77.3344L0 77.3344L0 0Z" id="Rectangle" fill="#CE3D29" stroke="none" />
                  </g>
                </g>
              </g>
            </g>
          </g>
          <g id="Overlay" transform="translate(20.5841 2.78129)">
            <path d="M10.4479 3.37782L3.82675 8.44609L0.172162 5.67515L0 2.14013L3.8268 5.06835L10.4481 0L17.0681 5.06833L23.6898 2.10655e-05L30.3098 5.06846L36.934 0.000357888L41.1723 3.37746L41.8772 7.12518L36.934 3.37746L30.3093 8.44598L23.6895 3.3778L17.0678 8.44611L10.4479 3.37782Z" transform="translate(3.219869 -3.552714E-15)" id="Stroke-21" fill="#000000" fill-opacity="0.404366642" stroke="none" />
            <path d="M44.1678 6.5703L3.28515 6.5703C1.47114 6.5703 0 5.0996 0 3.28515C0 1.4707 1.47114 0 3.28515 0L44.1678 0C45.9823 0 47.4529 1.4707 47.4529 3.28515C47.4529 5.0996 45.9823 6.5703 44.1678 6.5703" transform="translate(-6.82121E-13 68.10886)" id="Fill-9" fill="#000000" fill-opacity="0.395624071" stroke="none" />
          </g>
          <path d="M9.62166 19.2429L22.5311 19.2429L22.5311 0L9.62166 0C4.32983 0 0 4.32939 0 9.62121C0 14.913 4.32983 19.2429 9.62166 19.2429" transform="translate(-8.940398E-05 37.42768)" id="Fill-11" fill="#19141E" stroke="none" />
          <path d="M21.2857 13.323C21.2857 20.6809 16.5205 26.646 10.6427 26.646C4.76479 26.646 0 20.6809 0 13.323C0 5.96503 4.76479 0 10.6427 0C16.5205 0 21.2857 5.96503 21.2857 13.323" transform="translate(50.67149 33.72591)" id="Fill-14" fill="#19141E" stroke="none" />
          <path d="M0 26.646L5.00126 26.646L5.00126 0L0 0L0 26.646Z" transform="translate(56.31288 33.72586)" id="Fill-16" fill="#19141E" stroke="none" />
          <path d="M21.2857 13.323C21.2857 20.6809 16.521 26.646 10.6427 26.646C4.76479 26.646 0 20.6809 0 13.323C0 5.96503 4.76479 0 10.6427 0C16.521 0 21.2857 5.96503 21.2857 13.323" transform="translate(45.67001 33.72591)" id="Fill-18" fill="#FFFFFF" stroke="none" />
          <path d="M7.49295 4.69013C7.49295 7.28016 5.81573 9.38026 3.74647 9.38026C1.67722 9.38026 0 7.28016 0 4.69013C0 2.1001 1.67722 0 3.74647 0C5.81573 0 7.49295 2.1001 7.49295 4.69013" transform="translate(54.26839 41.46471)" id="Fill-19" fill="#19141E" stroke="none" />
          <path d="M0.22351 29.7841L0.22351 0" transform="translate(16.92207 13.63411)" id="Stroke-20" fill="none" stroke="#19141E" stroke-width="7" />
        </g>
      </g>
    </g>
  </g>
</svg>