<?xml version="1.0" encoding="UTF-8"?>
<svg width="22px" height="19px" viewBox="0 0 22 19" version="1.1" xmlns="http://www.w3.org/2000/svg" xmlns:xlink="http://www.w3.org/1999/xlink">
    <!-- Generator: Sketch 62 (91390) - https://sketch.com -->
    <title>bars</title>
    <desc>Created with Sketch.</desc>
    <defs>
        <path d="M0.768804665,3.36352041 L20.7577259,3.36352041 C21.1823464,3.36352041 21.5265306,3.02889684 21.5265306,2.61607143 L21.5265306,0.74744898 C21.5265306,0.334623565 21.1823464,0 20.7577259,0 L0.768804665,0 C0.344184238,0 0,0.334623565 0,0.74744898 L0,2.61607143 C0,3.02889684 0.344184238,3.36352041 0.768804665,3.36352041 Z M0.768804665,10.8380102 L20.7577259,10.8380102 C21.1823464,10.8380102 21.5265306,10.5033866 21.5265306,10.0905612 L21.5265306,8.22193878 C21.5265306,7.80911336 21.1823464,7.4744898 20.7577259,7.4744898 L0.768804665,7.4744898 C0.344184238,7.4744898 0,7.80911336 0,8.22193878 L0,10.0905612 C0,10.5033866 0.344184238,10.8380102 0.768804665,10.8380102 Z M0.768804665,18.3125 L20.7577259,18.3125 C21.1823464,18.3125 21.5265306,17.9778764 21.5265306,17.565051 L21.5265306,15.6964286 C21.5265306,15.2836032 21.1823464,14.9489796 20.7577259,14.9489796 L0.768804665,14.9489796 C0.344184238,14.9489796 0,15.2836032 0,15.6964286 L0,17.565051 C0,17.9778764 0.344184238,18.3125 0.768804665,18.3125 Z" id="path-1"></path>
    </defs>
    <g id="Page-1" stroke="none" stroke-width="1" fill="none" fill-rule="evenodd">
        <g id="Blockcs_1_0_0_mobile" transform="translate(-288.000000, -16.000000)">
            <g id="header">
                <rect id="bg" fill="#FFFFFF" fill-rule="nonzero" x="0" y="0" width="320" height="50"></rect>
                <g id="Icons/Solid/bars" transform="translate(288.000000, 16.000000)">
                    <mask id="mask-2" fill="white">
                        <use xlink:href="#path-1"></use>
                    </mask>
                    <use id="bars" fill="#2D2E2C" fill-rule="nonzero" xlink:href="#path-1"></use>
                </g>
            </g>
        </g>
    </g>
</svg>
