<?xml version="1.0" encoding="UTF-8"?>
<svg width="27px" height="27px" viewBox="0 0 27 27" version="1.1" xmlns="http://www.w3.org/2000/svg" xmlns:xlink="http://www.w3.org/1999/xlink">
    <!-- Generator: Sketch 62 (91390) - https://sketch.com -->
    <title>times-circle</title>
    <desc>Created with Sketch.</desc>
    <defs>
        <path d="M13.1875,0 C5.90246976,0 0,5.90246976 0,13.1875 C0,20.4725302 5.90246976,26.375 13.1875,26.375 C20.4725302,26.375 26.375,20.4725302 26.375,13.1875 C26.375,5.90246976 20.4725302,0 13.1875,0 Z M13.1875,23.8225806 C7.31161794,23.8225806 2.55241935,19.0633821 2.55241935,13.1875 C2.55241935,7.31161794 7.31161794,2.55241935 13.1875,2.55241935 C19.0633821,2.55241935 23.8225806,7.31161794 23.8225806,13.1875 C23.8225806,19.0633821 19.0633821,23.8225806 13.1875,23.8225806 Z M18.600756,9.87998992 L15.293246,13.1875 L18.600756,16.4950101 C18.8506804,16.7449345 18.8506804,17.1490675 18.600756,17.3989919 L17.3989919,18.600756 C17.1490675,18.8506804 16.7449345,18.8506804 16.4950101,18.600756 L13.1875,15.293246 L9.87998992,18.600756 C9.63006552,18.8506804 9.22593246,18.8506804 8.97600806,18.600756 L7.77424395,17.3989919 C7.52431956,17.1490675 7.52431956,16.7449345 7.77424395,16.4950101 L11.081754,13.1875 L7.77424395,9.87998992 C7.52431956,9.63006552 7.52431956,9.22593246 7.77424395,8.97600806 L8.97600806,7.77424395 C9.22593246,7.52431956 9.63006552,7.52431956 9.87998992,7.77424395 L13.1875,11.081754 L16.4950101,7.77424395 C16.7449345,7.52431956 17.1490675,7.52431956 17.3989919,7.77424395 L18.600756,8.97600806 C18.8506804,9.22593246 18.8506804,9.63006552 18.600756,9.87998992 L18.600756,9.87998992 Z" id="path-1"></path>
    </defs>
    <g id="Page-1" stroke="none" stroke-width="1" fill="none" fill-rule="evenodd">
        <g id="menu_1_0_0_tablet" transform="translate(-721.000000, -17.000000)">
            <g id="header" fill="#FFFFFF" fill-rule="nonzero">
                <rect id="bg" x="0" y="0" width="768" height="60"></rect>
            </g>
            <g id="Icons/Regular/times-circle" transform="translate(721.000000, 17.000000)">
                <mask id="mask-2" fill="white">
                    <use xlink:href="#path-1"></use>
                </mask>
                <use id="times-circle" fill="#2D2E2C" fill-rule="nonzero" xlink:href="#path-1"></use>
            </g>
        </g>
    </g>
</svg>
